<?xml version="1.0" encoding="UTF-8"?>
<svg id="Layer_1" data-name="Layer 1" xmlns="http://www.w3.org/2000/svg" viewBox="0 0 1300.03 1190.38">
  <path d="m681.38,470.9c-5.94,7.43-11.57,14.42-17.13,21.47-.8,1.01-1.39,2.27-1.77,3.51-5.41,17.49-9.78,35.14-11.95,53.42-4.02,33.86-8.87,67.62-13.38,101.42-3.48,26.05-7.09,52.09-10.33,78.17-.76,6.08-.69,12.33-.31,18.46,1.33,21.34-1.91,42.07-7.16,62.66-1.6,6.26-3.27,12.28-7.97,16.78-8.11,7.77-9.22,17.94-10.68,28.19-3.34,23.38-6.85,46.73-10.5,70.06-.47,3.01.16,4.91,2.28,7,11.87,11.69,23.67,23.44,35.27,35.39,1.62,1.67,2.59,4.44,2.92,6.83,1.84,13.08-1.38,24.77-9.41,35.44-3.04,4.04-5.78,7.93-10.32,10.41-4.08,2.23-8.24,4.51-11.83,7.41-12.58,10.15-27.27,13.63-42.95,15.07-12.41,1.14-24.73,3.3-37.07,5.16-2.08.31-4.12,1.27-6.05,2.2-7.34,3.53-14.94,6.67-21.88,10.88-17.43,10.57-36.9,15.21-56.43,18.94-14.97,2.86-30.42,3.22-45.65,4.7-16.06,1.56-32.13,3.06-48.18,4.74-2.22.23-4.52,1.06-6.5,2.14-11.7,6.34-23.56,12.42-34.86,19.42-6.44,3.99-12.32,9.13-17.73,14.48-13.69,13.56-29.41,23.37-47.54,30.11-19.46,7.24-38.12,16.65-57.64,23.7-11.6,4.19-24.2,5.6-36.32,8.4-22.23,5.14-44.78,1.7-67.17,2.58-1.4.06-2.88-.73-4.25-1.29-3.99-1.65-7.82-3.85-11.95-5-14.14-3.94-24.17-13.48-33.56-23.95-1.3-1.45-2.21-3.29-3.08-5.05-9.34-18.91-15-38.94-19.41-59.53-1.97-9.21-.51-17.26,2.38-26.92.95,2.8,1.56,4.52,2.12,6.26.56,1.74,1.08,3.49,1.6,5.24,5.86,19.94,11.59,39.92,17.68,59.79.96,3.11,3.08,6.25,5.49,8.47,9.31,8.56,18.8,16.95,28.58,24.97,2.74,2.25,6.58,3.85,10.11,4.31,12.53,1.63,25.13,3.18,37.74,3.66,6.85.26,13.77-1.92,20.7-2.61,31.09-3.12,60.11-13.93,89.36-23.88,2.16-.73,4.15-2.08,6.08-3.36,33.95-22.59,67.87-45.24,101.85-67.79,2.44-1.62,5.27-2.75,8.06-3.7,26.19-8.94,53.5-9.71,80.75-10.97,10.8-.5,21.6-1.19,32.39-1.83,1.14-.07,2.35-.24,3.39-.68,10.1-4.27,20.17-8.6,30.2-12.89-2.01-8.97-2.89-9.71-11.35-9.71-15.99,0-31.98.03-47.97-.04-1.74,0-4.28.02-5.09-1.02-2.99-3.85-6.83-3.31-10.8-3.1-25.92,1.37-51.84,2.68-77.76,4.09-1.76.1-3.59.65-5.21,1.39-17.99,8.22-35.97,16.49-53.9,24.85-2.54,1.18-4.91,2.79-7.19,4.44-24.05,17.31-48.01,34.75-72.13,51.95-3.99,2.85-8.49,5.26-13.1,6.93-22.03,7.98-44.15,15.73-66.33,23.29-2.75.94-6.1.68-9.08.27-19.68-2.69-35.43-12.21-47.49-27.91-1.59-2.07-3.26-4.22-4.24-6.6-5.21-12.6-10.83-25.09-15.06-38.02-2.86-8.76-3.5-18.23-5.42-27.32-5.72-27.09-5.61-54.52-5.39-82.01.25-30.31-.01-60.63.18-90.94.02-2.66,1.86-5.29,2.77-7.96.62-1.82,1.52-3.66,1.6-5.52,1.56-32.9,2.44-65.85,4.74-98.7,1.08-15.35,4.77-30.52,7.45-45.75,4.79-27.18,9.7-54.34,14.63-81.5.44-2.43,1.12-4.88,2.1-7.14,18.93-43.81,37.55-87.75,57.12-131.27,5.76-12.8,14.21-24.41,21.53-36.5,12.23-20.22,24.37-40.49,36.89-60.53,4.83-7.73,10.05-15.36,16.09-22.14,9.43-10.59,16.96-22.06,21.22-35.64.73-2.32,2.08-4.54,3.49-6.55,38.34-54.64,76.72-109.25,115.13-163.84,1.43-2.03,3.09-3.92,4.85-5.68,31.19-31.23,62.36-62.48,93.68-93.58,2.74-2.72,6.42-4.52,9.7-6.68.82-.54,1.81-.84,2.72-1.23q25.22-10.82,52.85-10.22c1.77.04,3.53.68,5.29,1.07.32.07.61.26.92.39,29.68,12.49,30.3,12.03,49.6,38.12,6.01,8.12,9.76,19.22,10.93,29.37,2.68,23.1,3.1,46.46,4.49,69.71.08,1.29.2,3.14,1.02,3.72,4.85,3.45,3.78,8.42,3.78,13.14.01,32.98.31,65.96-.14,98.94-.19,13.64,1.22,26.8,5.39,39.76,2.29,7.11,4.34,14.34,5.87,21.64,2.55,12.14,10.56,21.31,16.66,32.86,8.89-13.37,22.61-22.22,26.47-38.22.66-2.74,1.54-5.47,2.72-8.03,7.43-16.23,7.97-33.29,7-50.75-1.13-20.26-1.45-40.57-2.08-60.85-1.35-43.57-2.65-87.14-4.03-130.71-.73-23.11-1.66-46.22-2.32-69.33-.08-2.9.6-5.94,1.53-8.71,2.11-6.3,5.12-12.34,6.82-18.73,2.77-10.44,8.71-18.53,16.88-25.16,1.4-1.14,3.81-1.77,5.62-1.55,6.6.81,13.11,2.33,19.71,3.09,3.13.36,4.69,1.77,5.88,4.43,1.7,3.79,3.27,7.74,5.61,11.13,6.8,9.86,6.4,20.78,5.99,32.01-.67,18.3-.58,36.62-.84,54.93-.66,46.61-1.32,93.21-2,139.82-.31,21.14-.65,42.28-1,63.41-.05,2.99-.19,5.98-.43,8.97-.83,10.44.92,20.36,4.59,30.22,5.05,13.55,9.65,27.29,13.75,41.16,2.71,9.15,6.9,17.15,13.25,24.19,3.33,3.69,6.29,7.71,9.44,11.62,3.85-1.99,5.07-4.8,5.15-8.95.85-45.59,1.88-91.19,2.93-136.78.47-20.46.44-40.97,1.89-61.36.88-12.35,4.26-24.52,6.32-36.8,3.17-18.92,12.51-35.7,18.32-53.68,4.12-12.77,11.49-23.15,19.76-33.56,9.7-12.21,21.25-19.87,35.88-25.08,11.46-4.08,22.28-5.52,33.91-3.08,1.62.34,3.29.49,4.95.6,8.43.54,16.03,2.85,23.26,7.71,12.41,8.35,25.17,16.28,38.28,23.49,12.63,6.95,21.33,17.9,30.98,27.91,22.76,23.61,45.26,47.46,67.82,71.26,2.51,2.65,4.9,5.45,7.02,8.42,28.89,40.33,58.1,80.44,86.35,121.21,9.14,13.19,15.83,28.08,23.5,42.27,24.34,45.08,49.01,89.99,72.65,135.43,7.08,13.6,11.35,28.69,16.6,43.21,8.19,22.65,17.13,45.09,23.91,68.17,9.28,31.56,16.84,63.63,25.11,95.49.37,1.44.83,2.96.72,4.4-2.46,29.98,3.99,58.99,10.26,87.88,6.45,29.73,9.63,59.66,10.12,90.02.34,21.62,1.65,43.22,2.59,64.83.06,1.41.26,3.42,1.17,4.09,4.05,2.97,3.6,7.08,3.6,11.25-.03,37.14.02,74.29-.1,111.43,0,2.88-.7,5.97-1.89,8.59-7.86,17.43-15.88,34.78-24.03,52.08-1,2.13-2.71,4.23-4.63,5.59-13.13,9.39-26.38,18.62-39.67,27.78-1.7,1.17-3.82,2.21-5.84,2.4-15.9,1.48-31.81,2.83-47.74,3.98-2.7.19-5.59-.44-8.2-1.29-4.26-1.38-8.27-3.6-12.56-4.84-23.26-6.74-42.04-20.85-60.43-35.84-15.48-12.62-31.43-24.67-47.27-36.85-2.73-2.1-5.84-3.78-8.93-5.35-3.85-1.95-8.05-3.27-11.78-5.41-17.82-10.22-37.37-13.17-57.44-14.17-2.99-.15-5.99-1.01-8.93-.78-2.4.18-4.71,1.5-7.06,2.3-1.8.61-3.6,1.68-5.42,1.75-28.6,1.1-57.2,2.05-85.8,3.07-13.14.47-26.27,1.08-39.4,1.39-2.32.05-4.97-.58-6.96-1.75-13.36-7.81-26.61-15.8-39.81-23.88-1.75-1.07-3.39-2.71-4.46-4.46-17.31-28.61-34.96-57.04-51.47-86.11-4.8-8.46-6.45-18.76-9.23-28.31-6.37-21.86-12.6-43.76-18.76-65.68-.84-2.99-1.22-6.19-1.29-9.31-.18-7.66.32-15.34-.13-22.98-1.44-24.51.99-48.54,8.98-71.78,5.57-16.19,4.66-32.72,4.31-49.33-.55-25.96-.92-51.93-1.35-77.89-.76-46.1-1.5-92.2-2.26-138.31-.03-1.83-.71-3.75-.33-5.46,3.67-16.69-9.73-23.35-18.77-33.06Zm64.59,73.65c-4.59,2.5-5.39,5.81-5.36,10.02.16,26.15.08,52.3.08,78.45,0,4.11.63,8.26-3.33,11.38-.96.75-1.09,3.1-.94,4.64,1.6,16.45-1.84,32.02-7.92,47.18-1.67,4.16-3.06,8.45-4.23,12.77-.86,3.16-1.72,6.5-1.57,9.71.28,6.03-.87,11.48-4.04,16.61-1.4,2.25-3.21,4.66-3.46,7.14-.86,8.67-1.13,17.4-1.57,26.11-.02.4.41.96.79,1.22,3.95,2.69,3.59,6.72,3.55,10.74-.08,7.16-.09,14.33.03,21.49.03,1.57.18,3.84,1.17,4.58,3.89,2.89,3.31,6.81,3.46,10.79.34,9.23-1.37,18.58,2.27,27.63,4.61,11.45,8.22,23.16,6.91,35.84-.15,1.51,1.32,3.16,1.98,4.78.89,2.19,2.55,4.44,2.43,6.59-.55,9.98,1.52,19.39,4.36,28.88,10.87,36.31,24.39,71.28,47.04,102.22,12.39,16.92,26.12,31.81,46.21,39.61,4.94,1.92,9.53,4.74,14.33,7.04,1.47.71,3.09,1.53,4.65,1.53,15.73.06,31.43,1.2,46.62-5.37,11.4-4.93,23.57-8.1,35.43-11.94,2.34-.76,4.84-1.24,7.3-1.43,17.59-1.34,35.18-2.54,52.77-3.84,4-.3,7.9-.88,10.8,3.07.72.98,2.65,1.31,4.07,1.47,7.1.84,14.27,1.24,21.33,2.35,7.89,1.24,16.43-.01,23.2,5.96,4.08,3.6,8.75,5.69,14.55,5.09,2.06-.21,4.4,1.19,6.45,2.21,37.07,18.45,74.09,37,111.19,55.38,2.56,1.27,5.71,2.09,8.52,1.95,6.37-.31,12.16.85,17.57,4.25,2.24,1.41,4.66,3.25,7.12,3.47,7.17.66,15.08,2.59,21.47.41,13.77-4.7,19.8-17.13,22.92-30.4,2.78-11.79,5.1-23.85,5.89-35.91.77-11.74,5.41-19.15,16.71-22.3,3.67-1.02,4.48-3.53,4.45-7.17-.16-20.32-.1-40.64-.06-60.96,0-4.17.46-8.32-3.59-11.29-.82-.6-1-2.37-1.09-3.62-.34-4.64-.56-9.3-.76-13.95-1.13-26.1-2.21-52.2-3.4-78.3-.1-2.25-.1-5.35-1.46-6.52-3.61-3.1-3.55-6.8-3.48-10.82.1-5.83-.01-11.66.04-17.49.04-4.15.5-8.27-3.56-11.29-.98-.72-1.06-3.02-1.08-4.6-.1-8.33.01-16.66-.1-24.98-.02-1.55-.24-3.72-1.24-4.54-3.58-2.94-3.58-6.89-3.9-10.85-1.11-13.93-2.19-27.86-3.4-41.78-.2-2.24-.34-5.21-1.74-6.47-3.22-2.89-3.12-6.24-3.28-9.94-.4-8.93.39-18.24-1.93-26.68-8.04-29.32-17.08-58.38-25.98-87.46-5.2-16.99-9.32-34.52-16.57-50.62-21.72-48.22-44.68-95.87-67.33-143.66-1.87-3.95-4.68-7.64-7.75-10.78-2.89-2.96-4.44-5.81-4.21-10.03.11-2.05-.96-4.48-2.2-6.25-6.45-9.25-13.71-17.98-19.59-27.57-7.1-11.59-12.15-24.51-19.77-35.71-16.08-23.68-33.19-46.66-50-69.84-10.15-14.01-19.46-28.82-31.02-41.59-24.34-26.9-49.87-52.73-75.01-78.9-6.78-7.06-13.13-14.96-21.09-20.38-17.17-11.7-35.24-22.09-53.03-32.87-2.01-1.22-4.59-2.02-6.93-2.07-11.32-.21-22.65-.25-33.97.03-2.39.06-5.17,1.2-7.04,2.73-8.76,7.17-17.84,14.1-25.65,22.22-5.51,5.72-10.69,12.66-13.39,20.02-8.99,24.47-16.87,49.36-24.99,74.15-1.17,3.57-1.71,7.45-1.9,11.22-1.24,24.6-2.04,49.22-3.57,73.8-.44,7.06,1.87,15.17-5.15,20.86-.7.57-.32,2.55-.32,3.87-.01,44.47-.06,88.94.12,133.42,0,2.25,1.41,5.01,3.05,6.65,3.63,3.64,8.35,6.26,11.69,10.11,8.3,9.6,17.83,11.7,29.66,7.44,3.98-1.43,7.56-2.6,10.63-5.72,14.24-14.49,28.74-28.73,42.94-43.27,1.73-1.77,3.23-4.91,3.02-7.25-1.43-16.07,1.77-31.01,9.57-45.06,1.2-2.17,1.79-4.68,3.03-6.83,1.13-1.95,2.45-4.01,4.19-5.35,10.16-7.81,20.44-15.47,30.77-23.07,1.39-1.02,3.22-1.92,4.88-1.99,6.15-.23,12.39-.61,18.45.16,2.46.31,6.2,3.16,6.54,5.31,1.45,8.96-.25,17.33-6.92,24.37-15.33,16.2-30.41,32.64-45.58,49-3.69,3.98-7.34,8-11.31,12.34,3.79,2.54,7.25,4.54,10.32,7.02,2.6,2.09,4.91,1.93,7.79.79,9.13-3.59,18.29-7.1,27.54-10.34,3.06-1.07,6.44-1.7,9.69-1.74,15.49-.18,30.98-.11,46.47-.06,4.79.02,9.72.71,12.97-5.04,2.92,5.48,7.31,5.22,11.71,5.03,1.83-.08,3.66-.01,5.5-.01q10.76,0,13.59,10.27c.13.48.47,1,.38,1.43-.19.88-.36,2.19-.96,2.5-9.21,4.72-16.76,12.71-27.84,13.78-8.94.86-17.86,2.01-26.75,3.26-1.83.26-3.48,1.6-5.27,2.32-2.32.94-4.68,2.47-7.04,2.51-14.15.24-28.31.11-42.47.12-4.28,0-8.65.74-11.7-3.65-.62-.89-2.71-1.01-4.13-1.06-3.83-.14-7.69-.31-11.48.06-1.93.19-4.27,1.02-5.55,2.39-17.06,18.23-33.99,36.58-50.85,55-1.08,1.18-2.01,3.23-1.81,4.71,2.05,15.41,2.49,31.26,11.55,44.91,1.83,2.75,3.21,5.84,4.46,8.92,6.34,15.52,15.73,28.8,28.61,39.58,5.2,4.35,9.9,9.56,15.69,12.87,34.38,19.64,69.05,38.76,103.49,58.28,4.04,2.29,6.25,2.08,9.67-1.24,9.26-9,21.01-13.36,33.64-13.93,15.96-.72,31.97-.17,47.96-.17,10.7,0,10.62.03,13.75,10.03.77,2.47.45,3.84-1.83,5.26-5.65,3.52-11.22,7.18-16.64,11.05-9.8,7.01-20.48,10.48-32.66,9.94-10.14-.45-20.32.07-30.47-.17-3.99-.09-6.55,1.32-8.51,5.13,11.08,5.06,22.08,9.73,32.77,15.05,11.14,5.55,22.64,9.15,35.1,10.36,6.81.66,14.11.31,19.41,6.95,5.09,6.37,5.42,11.04-.07,17.12-3.53,3.91-7.28,5.7-12.58,5.21-4.79-.45-9.71-.56-14.47,0-16.25,1.89-30.4-2.47-44.13-11.39-7.98-5.19-14.27-10.51-17.99-19.42-3.88-9.29-11.24-16.45-19.75-21.17-37.25-20.62-74.86-40.57-112.35-60.76-3.67-1.98-8.06-.62-8.23,3.25-.24,5.5-.58,11.74,1.64,16.49,10.14,21.69,20.58,43.3,32.03,64.32,11.68,21.43,25.82,41.16,46.8,54.81,1.6,1.04,3.61,1.68,5.51,1.97,4.11.62,8.28.8,12.4,1.32,8.9,1.11,18.24.96,26.59,3.76,18.64,6.25,36.33,14.74,50.73,28.8,3.38,3.3,4,9.82.77,13.22-3.36,3.54-14.04,3.7-17.95.73-1.92-1.46-4.66-2.82-6.92-2.67-6.77.44-12.56-1.45-18.4-4.75-13.75-7.77-28.06-14.58-41.59-22.72-6.72-4.04-12.68-4.91-19.38-1.39-2.13,1.12-4.39,2.39-5.92,4.16-4.67,5.42-9.18,11-13.39,16.78-1.44,1.98-2.47,4.74-2.5,7.16-.22,15.99-.18,31.98-.05,47.97.02,2.41.71,4.89,1.47,7.22,6.22,19.02,16.2,35.57,32.07,48.18.52.41,1.06.87,1.39,1.42.75,1.26,1.69,2.54,1.99,3.93,1.25,5.85,2.2,11.76,3.45,17.61.93,4.36-1.83,6.5-5.09,7.02-13.14,2.12-25.39-2.85-35.13-9.93-9.25-6.73-17.35-16.75-22.44-27.06-5.85-11.85-11.84-24.71-8.56-39.17,1.13-4.98,1.17-10.25,1.3-15.4.37-14.73,3.32-28.57,12.4-40.65,2.28-3.04,3.76-6.66,5.76-9.92,3.57-5.81,3.39-11.51.11-17.4-13.29-23.83-26.67-47.61-39.62-71.62-3.09-5.72-7.12-9.37-13.19-11.06-4.05,2-5.21,5.57-5.57,9.8-.99,11.6-1.91,23.23-3.41,34.77-.55,4.26.4,7.31,3.2,10.3,9.67,10.35,17.73,21.5,17.82,36.56.01,2.13.54,4.3,1.06,6.39.35,1.39.86,2.88,1.73,3.98,3.26,4.14,4.79,18.54,2.1,23.07-2.04,3.43-4.26,6.77-6.68,9.93-.77,1.01-2.36,1.71-3.67,1.92-9.08,1.46-12.96-5.34-16.86-11.36-10.04-15.5-15.12-32.34-12.56-51.02.27-1.96.05-3.99.03-5.99-.03-3.94-5.11-9.42-8.81-8.6-3.93.87-5.4,4.12-5.35,8.33.17,14.32.08,28.65.06,42.97,0,4.29-.67,8.68,3.7,11.7.86.6,1.1,2.38,1.27,3.66,2.79,22.12,5.56,44.24,8.2,66.38.22,1.86.07,4.13-.81,5.69-2.28,4.03-5.07,7.76-7.57,11.49q-17.35-2.83-26.63-16.82c-3.73-5.68-7.84-11.25-10.62-17.39-6.95-15.37-9.91-31.58-8.45-48.55.48-5.62-.11-11.33.15-16.98.16-3.44.86-6.88,1.58-10.26,3.41-15.98,11.34-29.2,24.32-39.28.26-.2.44-.51.71-.7,4.46-3.1,6-7.59,6.51-12.77.57-5.79,1.42-11.56,2.3-17.31.59-3.87.62-7.95,4.35-10.71.93-.69,1.24-2.63,1.31-4.02.18-3.49.04-6.99.07-10.49.04-4.87-1.01-9.96,3.85-13.64.94-.71.85-3.08.86-4.69.06-13.99.1-27.98-.02-41.97-.02-2.44-.63-4.92-1.23-7.31-4.68-18.43-13.48-34.96-23.18-51.13-1.93-3.21-2.13-7.43-3.3-11.13-.67-2.09-1.19-4.6-2.66-5.99-4.12-3.91-7.69-7.79-6.36-14.09.15-.72-.2-1.67-.6-2.35-4.28-7.28-8.62-14.53-13.07-21.99Zm-339.43,288.24c-6.73,4.48-13.41,8.52-19.64,13.19-5.06,3.79-10.29,5.73-16.62,5.04-1.87-.2-4.73-.18-5.62.94-3.35,4.21-7.33,3.54-11.69,2.78-4.58-.8-9.29-.94-13.84-1.84-9.72-1.93-18.92-1.32-28.11,2.96-13.34,6.21-27.14,10.36-42.33,9.04-7.06-.61-11.44-5.05-16.32-8.65-1.69-1.25-.89-5.8-1.34-8.82-1.03-6.87,3.67-9.86,9.07-10.49,7.1-.83,14.17-1.96,21.25-2.99,3.5-.51,6.78-.93,9.49,2.45.87,1.09,3.3,1.26,5.03,1.28,10.99.11,21.99.21,32.97-.05,2.82-.07,6.02-.85,8.33-2.39,12.58-8.38,26.14-14.41,40.66-18.51,5.11-1.44,10.06-3.48,15.17-4.94,3.32-.95,5.18-2.81,6.63-5.97,15.36-33.56,30.73-67.13,46.47-100.52,4.59-9.74,7.73-19.67,9.21-30.32.72-5.19.06-11.17,5.16-15.08.55-.43.55-2.19.18-3.08-1-2.41-2.33-4.67-3.67-7.27-10.63,4.54-20.85,8.88-31.02,13.31-1.17.51-2.17,1.52-3.11,2.44-6.27,6.21-12.6,12.37-18.65,18.79-1.26,1.33-2.1,3.77-1.94,5.6.68,7.78,1.27,15.65,2.93,23.25,1.57,7.2.28,12.94-4.83,18.16-3.45,3.52-5.86,8.6-9.92,10.85-5.22,2.89-8.6,6.27-10.21,11.87-.78,2.7-2.4,5.17-3.06,7.89-1.73,7.14-7.72,10.98-11.86,16.28-5.36,6.86-12.46,3.6-18.88,4.41-.33.04-.67.01-1,0-4.43-.17-7.33-3.05-7.42-7.48-.07-3.66.17-7.34-.07-10.99-.2-3.02.91-4.82,3.45-6.47,11.58-7.53,23.08-15.19,34.46-23.02,1.72-1.18,3.41-3.32,3.83-5.29,1.5-7.15,2.34-14.44,3.65-21.64.83-4.58-2.16-6.95-5.45-7.43-3.54-.51-7.81.02-10.98,1.64-15.84,8.1-31.31,16.92-47.14,25.05-6.68,3.43-12.32,7.67-16.64,13.8-9.35,13.27-20.95,23.97-35.78,30.9-1.92.9-3.95,1.81-6.01,2.08-8.24,1.09-16.51,2.05-24.79,2.82-6.81.63-14.22,3.36-20-2.16-2.82-2.69-4.06-7.02-6.01-10.62,5.34-4.6,9.97-11.21,16.17-13.42,17.18-6.13,34.97-10.57,52.61-15.37,5.81-1.58,10.96-3.87,14.5-8.81,1.06-1.48,2.22-4.05,1.62-5.32-1.38-2.95-1.47-7.36-6.85-7.12-7.98.37-15.99.03-23.98.11-8.71.08-14.95-5.83-22.29-9.06-.39-.17-.65-.73-.89-1.15-4.97-8.81-4.54-12.57,2.69-19.16,1.41-1.29,3.68-2.11,5.62-2.26,4.47-.33,9.03.29,13.48-.17,16.15-1.68,30.91,1.22,43.85,11.7,1.48,1.2,4.72,1.27,6.73.61,12.69-4.19,24.45-10.21,35.38-18.04,11.09-7.95,22.65-15.23,34-22.81,1.62-1.08,3.23-2.2,5.02-3.44-2.45-3.55-4.98-5.46-9.24-5.17-4.96.33-10.34,1.07-14.89-.39-20.93-6.69-42.99-11.27-58.93-28.38-.11-.12-.31-.17-.39-.3-2.41-3.51-5.33-6.78-7.09-10.6-1.86-4.03,3.78-10.23,8.27-9.79,6.29.63,12.59,1.12,18.88,1.75,14.33,1.45,28.89,1.53,42.18,8.54,5.7,3.01,11.88,5.24,18.03,7.25,8.44,2.75,15.44,7.27,21.36,13.94,5.35,6.02,10.51,6.61,17.72,3.01,16.07-8.01,32.14-16.03,48.18-24.12,1.75-.88,3.38-2.1,4.87-3.39,11.46-9.93,20.77-21.41,26.36-35.73,1.81-4.63,4.76-8.81,6.55-13.45,4.1-10.59,1.53-21.61,1.52-32.46,0-.43-.44-.88-.71-1.3-6.88-11-13.49-22.2-20.85-32.88-1.94-2.82-6.08-4.52-9.57-5.63-1.01-.32-3.29,3.16-4.9,4.97-.99,1.12-1.88,2.34-2.7,3.59-7.86,11.89-18.64,19.07-32.99,20.59-2.14.23-4.24.82-6.36,1.26-9.07,1.9-18.99-7.88-17.18-16.95.09-.45.4-.94.74-1.25,6.04-5.33,10.48-12.4,18.65-15.4,8.64-3.18,16.97-7.21,26.01-11.11-7.23-7.16-12.78-15.03-22.66-17.59-3.19-.83-6.32-2.16-9.25-3.69-3.53-1.84-6.36-1.17-9.71.73-13.93,7.86-26.95,17.58-43.97,18.77-7.1.5-13.59,1.21-20.16-2.4-5.36-2.95-11.13-5.28-16.93-7.26-4.52-1.54-5.81-3.98-5.88-8.69-.07-5.23,1.41-8.36,5.89-11.32,5.52-3.65,10.94-5.76,17.59-5.15,4.62.42,9.35.39,13.97,0,4.46-.39,8.86-1.51,14.32-2.49,1.76,2.9,6.05,2.73,10.47,2.63,7.16-.17,14.33.15,21.48-.17,2.06-.09,4.4-1.22,6-2.58,3.12-2.66,3.18-13.86.5-19.3-5.43-11.03-12.98-21.57-15.7-33.24-2.74-11.69.04-24.56-.86-36.82-1.62-22.07,1.78-43.05,11.64-62.83,2.65-5.31,6.57-9.98,9.67-14.59,10.34,4.46,16.18,10.37,19.09,20.37,3.16,10.83,5.47,21.4,5.04,32.73-.47,12.47.24,24.99-.25,37.46-.26,6.53-1.59,13.09-3.13,19.47-2.21,9.13-7.06,17.6-6.05,27.53.49,4.84,1.18,10.07-4.55,13.24,6.4,5.84,12.21,11.06,17.92,16.38,18.26,17.01,36.27,34.29,59.32,45.06,6.71,3.14,21.43,1.24,26.56-4.38,12.46-13.64,24.86-27.34,37.29-41.02,6.14-6.76,6.24-6.83,1.35-14.71-11.03-17.78-19.27-36.39-18.15-57.98.06-1.23-.24-3.08-1.06-3.64-4.23-2.9-3.51-7.14-3.51-11.23,0-7,.13-13.99-.09-20.98-.06-1.8-1.18-3.56-1.82-5.34-.96-2.66-2.75-5.31-2.76-7.98-.17-44.8-.14-89.6-.1-134.41,0-4,.37-7.89-3.37-10.87-.95-.76-1.06-3.08-.92-4.62.97-10.05-1.25-19.43-5.31-28.55-1.76-3.94-3.36-7.99-4.56-12.13-2.12-7.26-6-12.97-12.12-17.62-7.41-5.63-14.21-12.06-21.35-18.06-1.36-1.14-2.99-2.37-4.65-2.65-16.64-2.79-33.38-6.8-49.56,2.04-1.01.55-2.27.63-3.27,1.18-2.84,1.58-6.03,2.85-8.35,5.02-21.27,19.9-42.48,39.87-63.5,60.03-8.14,7.8-16.89,15.34-23.34,24.43-10.33,14.57-20.54,29.03-33.87,41.07-3.04,2.74-5.59,6.16-7.85,9.61-11.67,17.82-23.02,35.85-34.79,53.59-5.58,8.42-11.26,16.92-18.02,24.37-5.15,5.68-9.57,11.25-11.47,18.75-.59,2.35-1.94,4.59-3.3,6.64-15.64,23.57-31.37,47.08-47.05,70.63-14.38,21.61-29.95,42.54-42.82,65.02-21.56,37.65-41.41,76.29-61.94,114.54-.76,1.42-1.72,3.15-1.55,4.6.77,6.38-1.96,11.6-4.73,16.95-4.81,9.31-9.19,18.84-14.18,28.04-3.11,5.74-4.7,11.52-4.33,18.06.15,2.65-.53,5.76-1.9,8-5.77,9.42-8.26,19.44-6.98,30.42.17,1.48.15,3.01-.03,4.49-.13,1.08-.36,2.56-1.1,3.1-3.82,2.78-3.75,6.68-3.63,10.74.12,4.33.12,8.66-.03,12.99-.05,1.4-.3,3.35-1.21,4.06-3.29,2.55-3.18,5.91-3.11,9.44.09,4.66.19,9.34-.07,13.99-.09,1.63-1.2,3.21-1.85,4.81-1,2.48-2.74,4.91-2.9,7.44-1.54,23.41-2.79,46.83-4.21,70.25-.08,1.38-.58,3.21-1.55,3.98-3.21,2.5-3.33,5.79-3.41,9.37-.65,27.12-1.4,54.23-2.12,81.35-.69,25.95-1.41,51.9-1.97,77.86-.05,2.13,1.02,4.31,1.7,6.42.77,2.39,2.38,4.71,2.43,7.08.25,12.49.03,24.98.2,37.47.03,1.96,1.04,3.97,1.85,5.85,1.09,2.51,2.95,4.78,3.57,7.37,1.73,7.28,3.54,14.61,4.33,22.02,1.74,16.53,9.56,30.63,16.95,44.94.66,1.28,1.76,2.43,2.89,3.35,6.06,4.95,12.11,9.92,18.38,14.61,1.56,1.17,3.92,1.97,5.83,1.82,12.27-.95,24.53-2.14,36.78-3.4,4.26-.44,8.89-.42,12.64-2.15,20.1-9.28,39.36-19.92,57.41-32.99,27.58-19.96,54.41-41.23,86.13-54.8,8.09-3.46,15.95-7.53,23.64-11.82,6.16-3.43,12.42-5.15,19.47-4.59,4.2.34,8.65.92,11.83-3.32.66-.87,2.74-.92,4.17-.92,31.48-.05,62.96-.06,94.43.04,1.66,0,3.32,1.01,4.97,1.61,2.36.86,4.68,2.52,7.04,2.55,17.98.22,36.01-.54,53.95.36,10.88.55,18.1-3.29,25.99-10.6,18.38-17.03,32.61-36.41,42.69-59.36,3.99-9.09,7.15-17.79,5.89-27.65-.28-2.2-1.33-4.81-2.92-6.26-9.35-8.52-19.03-16.67-28.46-25.1-9.05-8.09-12.7-19.27-13.62-30.51-.64-7.79-2.15-13.87-8.39-18.31-5.5-3.92-6.05-9.02-5.47-15.25,1.57-17.06,2.69-34.17,3.64-51.28.12-2.22-1.27-5.85-2.94-6.57-3.1-1.34-7.95-2.58-10.21-1.07-4.22,2.82-9.77,5.7-9.8,12.18-.08,18.82.03,37.64-.12,56.46-.01,1.88-.75,4.39-2.07,5.49-3.41,2.85-7.34,5.08-10.78,7.37-7.24-4.37-10.5-10.16-9.36-18.45.65-4.72.94-9.8-4.32-12.62q4.42-5.74,4.42-13.42c0-2.17-.07-4.33.01-6.5.51-14.27,5.34-26.72,15.15-37.29,1.69-1.82,2.95-4.86,2.92-7.32-.11-8.56.1-16.94,4.36-24.7,4.46-8.13,5.43-16.88,5.05-26.04-.16-4-1.48-6.56-5.05-8.58-.83,1.53-1.69,2.94-2.37,4.42-10.06,21.82-22.21,42.41-36.09,62.01-3.56,5.02-6.89,10.21-10.28,15.35-5.12,7.78-12.16,14.99-14.73,23.54-2.57,8.57-.79,18.48-.63,27.8.04,2.55.68,5.28,1.78,7.57,4.74,9.9,9.83,19.62,14.58,29.52.95,1.98,1.54,4.49,1.26,6.62-1.01,7.58-1.69,15.35-4.01,22.55-1.72,5.34-5.22,10.47-9.08,14.6-1.63,1.74-6.24.84-9.5.88-5.74.06-8.47-2.82-8.09-8.58,1.21-17.93,2.55-35.85,3.71-53.78.16-2.54.45-5.78-.86-7.59-5.34-7.4-11.28-14.36-17.22-21.76Zm196.15-343.57c-3.9,4.14-7.92,8.33-11.84,12.62-.62.67-.76,1.76-1.18,2.63-1.03,2.12-1.74,4.52-3.22,6.26-3.23,3.79-8.77,6.73-9.87,10.93-1.48,5.67-4.88,9.12-8.71,12.06-6.77,5.2-9.39,13.16-14.47,19.41-.46.57-.29,1.61-.6,2.36-.72,1.74-1.13,3.91-2.42,5.08-5.98,5.42-8.62,12.63-11.52,19.8-1.54,3.81-3.8,7.33-5.44,11.11-2.76,6.36-5.3,12.81-7.89,19.24-.17.43-.03.99-.03,1.49,0,17.32-.01,34.64.02,51.96,0,1.47-.19,3.66.63,4.27,5.09,3.79,3.15,9.25,4.07,14.12,1.2,6.33,4.58,12.02,5.78,18.58.84,4.55,4.94,8.49,7.44,12.78.46.78.51,1.99.32,2.92-1.37,6.93,4.73,11.02,6.36,16.88,1.89,6.77,5,13.2,7.52,19.81.22.58.03,1.32.03,1.99,0,3.16-.02,6.33,0,9.49.04,4.39-.99,9.03,3.56,12.24.77.54.73,2.46.76,3.75.09,4,.28,8.01-.07,11.98-.17,1.96-1.45,3.82-2.21,5.73-.7,1.76-2.29,3.79-1.89,5.27,2.52,9.29-7.08,15.77-5.47,24.75.08.42-.94.95-1.18,1.53-.96,2.33-1.81,4.7-2.71,7.05-.95,2.5-1.46,5.32-2.97,7.42-2.21,3.07-2.72,5.86.18,8.31,1.74,1.46,4.14,2.61,6.38,2.91,13.23,1.81,23.83-3.28,32.58-12.96,2.23-2.47,4.99-4.5,6.95-7.15,1.45-1.97,2.68-4.56,2.82-6.95.38-6.64,0-13.32.23-19.97.06-1.8,1.23-3.57,1.91-5.34.84-2.2,2.4-4.38,2.45-6.59.24-12.65.03-25.31.21-37.97.03-1.94,1.28-3.87,1.98-5.8.86-2.36,2.45-4.71,2.48-7.09.23-15.49.07-30.98.18-46.46.01-1.85.34-4.33,1.53-5.4,2.85-2.55,3.21-5.49,3.2-8.95-.07-34.64-.06-69.28,0-103.92,0-2.07-.05-4.97,1.18-6.06,3.27-2.88,3.23-6.28,3.15-9.97-.08-3.66.08-7.33-.04-10.99-.16-4.97,1.45-10.34-3.66-14.22-.91-.69-.64-3.14-.65-4.77-.05-12.16-.2-24.32.06-36.47.09-4.4-1.49-7.26-5.95-9.7Zm124.28-9.2c4.62-2.31,5.51-5.89,5.1-10.22-.41-4.42.86-9.71-1.16-13.1-3.33-5.59-4.87-12.68-11.13-16.35-.51-.3-1.09-1.09-1.04-1.6.46-5.39-3.91-7.7-6.81-10.95-.88-.99-2.13-1.87-2.53-3.03-2.13-6.22-4.38-12.35-8.8-17.41-.4-.46-.48-1.19-.72-1.79-1.77-4.43-2.67-9.59-5.58-13.08-2.91-3.49-3.64-6.75-3.48-10.8.04-.94-.04-2.35-.62-2.77-4.24-3.09-4.44-7.43-4.21-12.03.04-.73-.35-1.79-.91-2.19-3.75-2.63-3.51-6.47-3.32-10.31.2-4.04.17-7.83-3.54-10.78-1.06-.84-1.08-3.34-1.09-5.07-.07-17.48-.06-34.97-.03-52.45,0-4.14.58-8.33-3.56-11.26-.8-.57-.94-2.4-.97-3.66-.11-4.16-.18-8.33.03-12.48.08-1.53.97-3.02,1.5-4.52.99-2.81,2.83-5.61,2.85-8.43.21-28.8.09-57.61.22-86.42,0-2.12,1.2-4.25,1.9-6.35.85-2.53,2.55-5.04,2.56-7.56.18-32.63.1-65.27.14-97.91,0-4.02.27-7.88-3.49-10.81-.99-.77-1.34-3.08-1.12-4.56,1.08-7.46-1.35-13.24-7.47-17.61-1.34-.95-2.38-2.32-3.56-3.49-4.18-4.13-6.36-4.17-10.41-.16-3.55,3.52-6.81,7.38-10.65,10.53-7.1,5.82-4.51,15.54-9.4,22.17-.32.43-.04,1.3-.04,1.97,0,2.83.01,5.66,0,8.49-.03,4.72.94,9.67-3.91,13.1-.87.62-.92,2.73-.93,4.16-.07,9.99-.14,19.98.05,29.97.03,1.79,1.24,3.55,1.91,5.33.95,2.48,2.72,4.95,2.74,7.44.21,22.98.08,45.96.2,68.93.01,1.98,1.04,3.97,1.7,5.92.81,2.39,2.45,4.74,2.47,7.11.19,21.98.14,43.96.09,65.94,0,4.17-.41,8.26,3.56,11.32.97.75,1.03,3.02,1.05,4.59.1,8.16.06,16.32.04,24.48-.01,4.4.85,8.95-3.63,12.21-.96.7-.95,3.06-.96,4.65-.08,9.49-.01,18.98-.07,28.47,0,1.63.22,4.08-.7,4.76-5.03,3.72-3.3,8.94-3.68,13.73-.14,1.73-.21,4.1-1.29,5-3.41,2.84-3.84,6.33-3.59,10.29.07,1.1,0,2.57-.65,3.3-4.44,4.94-5.22,12.47-11.45,16.14-.64.37-1.38,1.36-1.32,2,.41,4.78-3.27,6.98-5.98,9.76-3.25,3.34-6.6,6.59-9.87,9.91-3.71,3.78-3.63,5.73-.32,9.76,1.16,1.41,2.15,3.4,2.21,5.17.14,3.73,0,7.29,3.5,9.81.67.48.73,1.76,1.17,2.63,1.29,2.57,2.62,5.12,3.94,7.68.59-.1,1.18-.21,1.77-.31,1.28-2.03,2.62-4.01,3.81-6.09,1.17-2.05,1.66-4.82,3.34-6.21,8.37-6.91,14.08-16.33,24.92-21.21,7.79-3.51,14.81-2.66,21.96-2.12,4.26.32,8.21,4.59,12.34,7.03.96.57,2.08.85,3.09,1.33,1.98.95,4.22,1.63,5.85,3.02,3.04,2.58,5.72,5.58,8.54,8.4,3.77,3.77,7.89,7.25,11.2,11.38,3.27,4.08,7.06,8.48,8.23,13.32,1.53,6.37,6.05,9.55,10.02,13.91Zm-224.04,4.77c.72.83,1.47,1.7,2.21,2.57,2.83,3.27,7.38,5.45,6.83,10.89-.05.48.68,1.1,1.13,1.57,5.28,5.53,5.54,13.4,7.1,19.89,2.35,9.76.7,20.51.53,30.83-.03,1.63-1.2,3.23-1.8,4.86-.83,2.21-1.98,4.38-2.35,6.67-.52,3.24.64,7.22-.85,9.72-3.1,5.2-9.56,8.22-10.18,15.22-.02.26-.42.51-.68.71-10.49,8.29-17.34,20.28-30.22,26.54-7.27,3.53-12.22,11.96-20.52,15.18-1.63.63-3.43,1.75-4.98,1.52-6.73-.99-10.8,4.58-16.3,6.58-2.91,1.06-5.45,3.5-8.91,2.92-6.22-1.03-10.8,1.29-14.71,6.06-2.28,2.78-5.01,6.44-8.06,7.03-4.32.83-7.16,3.02-9.23,6.03-4.45,6.46-11.61,9.32-17.95,12.13-4.63,2.05-7.94,4.8-11.45,7.86-.74.65-1.55,1.88-2.25,1.83-5.67-.47-7.81,4.36-11.28,7.19-1,.81-2.06,1.64-3.24,2.13-4.53,1.92-9.27,3.41-13.62,5.65-4.38,2.26-8.38,5.25-12.59,7.86-.53.33-1.28.43-1.92.41-4.19-.13-7.08,2.52-7.36,5.93-.21,2.56,2.4,5.34,3.62,7.75,3.3-1.94,5.3-3.3,7.46-4.35,4.43-2.15,9.03-3.98,13.4-6.24,4.52-2.33,8.74-5.24,13.32-7.44,4.13-1.99,9.6-2.32,12.61-5.29,4.6-4.53,9.65-4.4,14.71-3.71,11.55,1.58,17.09-7.32,21.2-14.37,3.14-5.39,6.99-9.64,10.83-14.17,1.25-1.47,3.06-3.59,4.53-3.53,4.24.18,5.97-3.02,8.72-4.97,4.54-3.23,9.08-7.17,14.24-8.65,5.62-1.61,10.23-7.04,16.9-4.97.32.1.97-.35,1.24-.71,4.6-6.28,11.04-3.29,17.38-3.97,0,12.17.03,23.79-.06,35.4,0,.86-.63,2.02-1.34,2.51-3.39,2.38-3.29,5.77-3.3,9.35,0,2.9.09,6.12-1.08,8.64-2.08,4.47-5.1,8.49-7.66,12.74-.31.52-.09,1.34-.32,1.94-2.13,5.48-5.75,10.41-5.31,16.82.08,1.22-2.41,2.57-3.63,3.93-1.65,1.83-4.3,3.57-4.62,5.64-.91,5.9-6.83,10.31-4.86,16.97.12.41-.68,1.07-1.01,1.64-2.63,4.38-5.3,8.74-7.81,13.18-.45.79-.47,1.99-.31,2.93,1.08,6.45-4.32,10.52-5.94,16.04-1.35,4.61-5.19,8.42-7.39,12.85-3.03,6.09-5.57,12.42-8.32,18.66,2.51,2.47,5.42,5.33,8.34,8.19,8.05-6.39,8.3-6.85,9.21-16.01.09-.93.3-2.05.87-2.71,4.46-5.14,5.51-12.7,11.82-16.54.66-.4.71-1.76,1.13-2.62.97-1.98,1.75-4.11,3.04-5.85,1.77-2.37,5.51-4.36,5.63-6.66.27-4.98,3.69-7.13,6.32-10.18,1.16-1.34,2.18-2.83,3.07-4.36,1.26-2.17,2.19-4.54,3.54-6.64,3.3-5.12,8.61-9.77,9.73-15.29,1.65-8.16,10.88-10.99,11.32-19.42.15-2.83,1.9-5.62,3.11-8.34,2.37-5.35,4.77-10.69,7.42-15.9.46-.9,2.2-1.55,3.39-1.62,3.63-.21,7.28-.08,9.92-.08,1.99,3.02,3.58,5.23,4.93,7.59.69,1.21,1.33,2.68,1.34,4.04.1,11.99.09,23.98,0,35.98,0,1.22-.33,2.94-1.15,3.55-3.49,2.56-3.65,6.06-3.44,9.82.26,4.55.52,9.13-4.19,11.61,2.98,6.77,8.65,5.01,13.59,5.11,6.45.13,13.58,7.14,13.59,13.62.02,13.66.17,27.32-.13,40.97-.06,2.67-2.19,5.22-2.78,7.96-.53,2.45-1.25,5.73-.1,7.45,1.25,1.87,5.35,3.88,6.81,3.13,2.49-1.28,4.91-4.46,5.52-7.24,1.11-5.11,1.18-10.01,3.42-15.33,2.26-5.36,5.54-11.34,5.87-17.44.61-11.46.28-22.98.07-34.47-.03-1.91-1.46-3.79-2.21-5.7-.81-2.05-2.07-4.07-2.26-6.18-.44-5,1.1-10.37-3.99-14.15-.75-.56-.8-2.54-.62-3.78.64-4.29-1.1-7.43-4.39-9.89-3.62-2.71-4.12-6.42-4.99-10.67-1.24-6.1-3.47-12.38-6-17.87-2.04-4.45-2.87-8.37-3.17-12.9-.15-2.19-.91-4.36-1.58-6.49-.79-2.54-2.54-5.01-2.56-7.52-.2-22.82-.2-45.64-.07-68.46.04-6.64,5.98-11.85,5.05-18.86-.04-.33.67-.71.93-1.13,2.53-4.26,6.08-8.27,7.23-12.87,1-3.97,3.45-6.12,5.52-9.01,3.07-4.28,6.48-8.66,8.14-13.54,3.05-9,7.57-16.71,14.71-22.96,1.57-1.38,2.84-3.19,3.96-4.99,1.67-2.67,2.69-5.85,4.7-8.2,3.45-4.04,7.52-7.55,11.18-11.42,1.07-1.13,1.7-2.7,2.46-4.11,1.06-1.94,1.68-4.27,3.14-5.81,5.73-6.04,11.67-11.88,17.62-17.71,2.48-2.43,3.61-5.45,1.13-7.86-5.49-5.36-2.34-14.11-8.06-19.22-.35-.32-.02-1.31-.18-1.94-.91-3.61-6.06-7.09-8.75-5.19-3.7,2.62-8.19,5.91-9.36,9.81-1.22,4.04-3.3,6.62-5.91,9.27-5.61,5.7-11.49,11.14-16.89,17.02-6.03,6.56-15.17,5.07-22.27,9.09-3.03,1.71-7.84.44-11.83.21-1.52-.09-3.26-.7-4.44-1.65-5.61-4.5-7.06-4.36-12.06,1.92Zm242.22-17.77c-3.67,2.03-4.74,5.27-4.55,9.52.3,6.65.21,13.32.03,19.97-.1,3.96.16,7.45,3.57,10.3,1.08.9,1.62,3.46,1.24,4.96-1.95,7.54,3.35,13.01,5.44,19.29,1.56,4.7,5.23,8.7,7.92,13.04.33.53.29,1.28.54,1.88,1.82,4.4,3.41,8.91,5.58,13.13,2.26,4.39,5.11,8.48,7.64,12.74.31.53.34,1.3.31,1.94-.18,4.23-.23,8.36,3.87,11.15.53.36.48,1.5.8,2.23,1.95,4.52,3.7,9.15,5.96,13.52,2.27,4.39,5.24,8.41,7.58,12.76,3.08,5.73,7.16,11.37,8.37,17.54,1.2,6.07,4.99,11.45,5.19,17.23.67,19.29.28,38.62.19,57.93,0,1.54-.36,3.62-1.37,4.51-2.71,2.4-3.09,5.22-2.97,8.52.17,4.66.09,9.32.01,13.98-.02,1.28.08,3.19-.66,3.74-5.28,3.91-3.88,9.47-3.91,14.64-.03,4.74,3.36,8.5,7.25,8.35,3.62-.14,6.76-3.9,6.81-8.29.05-3.83-.16-7.67.09-11.48.11-1.68,1.03-3.32,1.63-4.96.97-2.65,2.57-5.23,2.83-7.94.47-4.78.12-9.64.14-14.47,0-1.16-.31-2.92.3-3.38,4.36-3.32,3.73-7.99,4.24-12.61.52-4.69,6.51-7.07,9.97-4.5,7.67,5.7,13.82,13.39,16.39,22,2.37,7.98,10.65,11.26,11.93,19.68.67,4.41,6.02,8.12,6.65,12.52,1.17,8.11,9.2,11.25,11.32,18.94,1.66,6.02,5.27,12.56,11.31,16.56.58.39.24,1.96.73,2.73,1.5,2.39,2.74,5.72,4.94,6.65,1.79.75,4.97-1.15,7.24-2.4,2.6-1.43,4.87-3.46,7.75-5.57-5.05-4.88-8.65-8.32-12.19-11.82-.93-.92-2.44-2.08-2.36-3.03.42-5.07-3.62-7.15-6.28-10.16-.98-1.12-2.83-2.26-2.8-3.35.17-5.77-4.8-7.96-7.46-11.77-2.63-3.76-4.67-7.98-6.63-12.16-2.09-4.45-3.51-9.22-5.75-13.58-2.26-4.4-5.18-8.46-7.75-12.71-.32-.53-.23-1.29-.47-1.88-1.84-4.4-3.58-8.84-5.61-13.15-2.63-5.58-5.51-11.05-8.28-16.57-1.86-3.7-3.57-7.47-5.59-11.08-2.41-4.31-5.1-8.45-7.59-12.71-.31-.52-.24-1.3-.24-1.96-.02-4.5-.58-9.09.2-13.45.45-2.5,3.18-6.64,4.72-6.57,9.07.41,18.87-3.75,26.64,3.13,1.67-1.14,3.28-2.24,5.66-3.86-4.91-4.62-9.11-8.62-13.39-12.54-.68-.63-1.73-.85-2.59-1.29-2.23-1.15-4.74-1.99-6.62-3.57-3.17-2.67-6.29-5.55-8.81-8.82-3.72-4.82-6.9-10.04-10.27-15.12-.24-.37-.01-1.03-.21-1.46-2.08-4.62-4.04-9.32-6.37-13.82-2.2-4.25-4.9-8.24-7.21-12.43-1.68-3.05-3.2-6.21-4.58-9.41-1.95-4.51-2.72-9.99-5.8-13.44-3.58-4.01-3.33-8.01-3.36-12.41-.04-5.83.07-11.66-.03-17.48-.13-7.58,3.42-13.96,8.17-18.97,14.19-14.98,29.06-29.32,43.65-43.93,5.51-5.51,4.61-12.35-2.4-16.46-10.97,11.01-22,22.11-33.07,33.16-1.15,1.15-2.63,2.98-3.81,2.88-4.24-.36-6,2.89-8.74,4.86-4.52,3.26-9.34,6.11-14.13,8.99-.75.45-1.96.17-2.96.17-3.83.01-7.73-.48-11.47.1-10.26,1.59-17.76-4.4-26.5-8.67Zm197.06,598.08c3.1,5.44,6.17,6.68,10.48,6.59,12.32-.26,24.64-.11,36.97-.08,4.23,0,7.84,1.09,11.94,3,5.07,2.36,11.04,3.37,16.55,5.65,3.52,1.45,8.18.11,10.98,4.15.38.55,1.48.59,2.24.9,4.25,1.76,8.88,2.95,12.63,5.46,4.51,3.02,7.17,8.74,13.68,8.86.74.01,1.48,1.25,2.19,1.95,2.95,2.93,5.84,5.94,8.87,8.79,1.03.97,2.39,1.61,3.66,2.29,2.08,1.12,4.5,1.8,6.24,3.29,3.65,3.14,6.49,8.72,10.49,9.64,7.75,1.77,10.93,8.13,16.26,12.25,1.15.89,2.39,1.68,3.66,2.39,2.34,1.32,5.49,1.98,6.95,3.93,4.91,6.56,12.51,9.2,18.72,13.83.49.36,1.28.28,1.88.54,4.52,1.92,9.49,3.23,13.4,6.03,2.92,2.09,5.59,2.67,8.9,3.27,6.35,1.14,12.13,4.4,18.46,6.08,2.99.79,5.9,2.83,9.45,2.77,5.99-.1,11.99,0,17.98-.04,1.32,0,2.86.2,3.91-.39,4.19-2.34,8.21-4.99,12.34-7.44.94-.56,2.11-.71,3.13-1.16,1.73-.76,3.46-1.53,5.13-2.42,1.28-.68,2.38-1.72,3.7-2.29,4.22-1.83,8.99-2.83,12.66-5.42,4.94-3.49,9.05-8.16,13.78-12.56-2.27-2.17-3.66-3.5-5.48-5.24-2.71,5.14-7.05,4.79-11.45,4.72-8.49-.14-17.04.53-25.46-.23-6.4-.58-12.05-4.51-18.54-5.91-3.15-.68-6.32-3.41-10.28-3.17-1.07.07-2.68-.15-3.19-.85-2.89-3.99-6.93-3.99-11.17-3.81-.91.04-1.96-.32-2.76-.8-4.25-2.55-8.43-5.21-12.66-7.78-.53-.32-1.3-.23-1.88-.48-4.52-1.96-9.14-3.73-13.49-6-4.37-2.28-8.38-5.27-12.73-7.58-5.73-3.05-11.65-5.76-17.5-8.59-.58-.28-1.24-.41-1.83-.66-4.54-1.91-9.11-3.74-13.58-5.8-3.3-1.53-6.5-3.3-9.67-5.09-4.18-2.36-8.28-4.87-12.45-7.26-.39-.23-1.03-.28-1.47-.15-6.99,2.09-11.88-3.5-16.93-6.03-4.69-2.35-8.83-2.63-13.47-3.06-2.03-.19-4.68-.38-5.86-1.66-2.6-2.81-5.53-3.02-8.95-3.15-5.87-.21-12.38,2.09-17.08-3.93-.64-.82-2.82-.59-4.29-.6-18.48-.04-36.97-.16-55.45.12-3.04.05-6.06,1.94-9.59,3.15Zm-283.57-633.5c-.09-.52-.19-1.04-.28-1.56-1.5,1.28-2.97,3.62-4.51,3.67-5.9.18-8.49,4.77-11.97,8.11-5.77,5.53-11.69,10.97-16.86,17.03-3.27,3.82-5.34,8.68-7.85,13.13-.36.65-.15,1.64-.15,2.47,0,14.49-.07,28.98.08,43.46.02,1.8,1.25,3.58,1.91,5.37.92,2.5,2.61,5,2.63,7.51.2,23.48.1,46.96.14,70.44,0,4.01.32,7.85-3.5,10.78-1.08.83-1.21,3.32-1.22,5.05-.08,18.65.04,37.3-.12,55.95-.04,4.26,1.8,6.75,5.08,8.48,4.14-2.27,5-5.62,4.84-9.82-.28-7.65-.17-15.32,0-22.98.04-1.68.92-3.35,1.5-4.99.88-2.52,2.42-4.97,2.63-7.53.42-5.13.21-10.32.1-15.48-.1-4.21-.3-8.23,3.69-11.23.97-.73,1.07-3.01,1.08-4.58.09-9.82-.02-19.65.11-29.47.02-1.68.86-3.37,1.44-5.02.99-2.82,2.63-5.53,2.99-8.41.52-4.1.06-8.31.15-12.47.1-4.84-1.27-10.05,3.68-13.73.74-.55.61-2.47.63-3.76.07-4-.14-8,.11-11.98.11-1.66.65-3.8,1.8-4.8,2.75-2.39,3.61-5.26,2.94-8.49-1.69-8.1,6.24-13.94,4.97-21.94-.11-.72,1.49-1.67,2.19-2.59.68-.9,1.83-1.99,1.72-2.86-.49-3.81,2.1-5.71,4.32-7.92,3.43-3.4,7.03-6.66,10.19-10.29,2.65-3.06,5.69-4.72,9.57-3.73,2.87.73,5.55,2.25,9.21,3.79.74-.72,2.1-2.06,3.82-3.74-7.7-7.67-14.85-14.86-22.11-21.92-.84-.81-2.36-.99-3.61-1.29-3.77-.92-7.56-1.76-11.33-2.64Zm45.76,383.32c-4.08,2.31-5.01,5.57-4.9,9.8.27,10.65.06,21.31.12,31.97,0,1.44-.08,3.6.75,4.2,5.16,3.73,3.74,9.08,4.05,14.1.37,6.03-2.18,12.75,3.9,17.62.62.5.35,2.22.36,3.37.04,3.83-.11,7.67.08,11.49.08,1.55.34,3.66,1.36,4.5,3.13,2.59,2.84,5.91,3.4,9.38,1.18,7.36,3.18,14.6,4.98,21.85.21.86,1.42,1.43,1.87,2.28,2.23,4.21,4.41,8.45,6.52,12.71,2.4,4.83,4.63,9.75,7.09,14.55,2.1,4.12,4.6,8.04,6.58,12.21,2.17,4.57,3.4,9.66,6.01,13.92,3.52,5.74,5.61,12.59,11.68,16.6.65.43.66,1.78,1.07,2.65.95,1.99,1.72,4.13,3.01,5.88,1.74,2.39,5.33,4.34,5.56,6.73.42,4.3,3.13,6.33,5.48,9.02,3.49,3.99,8.5,6.68,9.29,13.01.24,1.9,4.28,3.39,6.67,4.92.91.59,2.29.52,3.1,1.19,7.07,5.79,14.07,11.68,20.87,17.35,2.59-2.07,4.13-3.29,6.56-5.22-4.81-4.46-9.04-8.4-13.3-12.32-.48-.44-1.05-1-1.63-1.06-8.69-.95-13.79-8.11-16.78-14.06-3.15-6.26-7.95-10.21-11.93-15.25-1-1.26-2.04-2.57-2.69-4.02-2.01-4.49-3.58-9.2-5.83-13.57-2.26-4.39-5.32-8.36-7.67-12.72-3.15-5.85-5.96-11.87-8.88-17.84-.35-.72-.35-1.62-.7-2.35-2.26-4.71-4.62-9.38-6.84-14.12-1-2.13-2.38-4.36-2.46-6.59-.25-6.9-6.35-12.16-5.14-19.37.04-.21-.35-.58-.62-.75-3.71-2.38-3.31-6.08-3.43-9.77-.09-2.88.14-6.58-1.48-8.42-2.63-3-3.04-5.96-3.09-9.53-.04-2.91.38-6.88-1.26-8.49-3.38-3.32-3.41-6.88-3.33-10.88.08-4.16.07-8.33-.02-12.49-.03-1.28,0-3.15-.76-3.71-4.61-3.41-3.32-8.24-3.64-12.77-.15-2.19-.39-4.97-1.74-6.36-2.48-2.55-3.14-5.18-2.99-8.5.19-4.32-.51-8.75.16-12.97,1.37-8.56-2.96-13.76-9.45-18.18Zm10.16-330.95c-7.18,6.21-7.59,11.77-2.94,17.68,1.18,1.49,1.67,3.89,1.68,5.87.12,20.47.05,40.93.09,61.4,0,4.16.47,8.28-3.58,11.26-.89.66-1.06,2.7-1.06,4.11-.06,22.3-.07,44.6.02,66.89,0,1.51.47,3.58,1.51,4.43,2.98,2.46,3.24,5.51,3.12,8.94-.14,4.16.2,8.34-.1,12.47-.3,4.14,1.08,7.07,4.8,8.91,3.59-1.94,4.83-4.79,4.87-8.94.05-6.17-2.25-13.02,3.94-18.04.82-.66.53-2.84.54-4.31.05-7.99-.08-15.98.1-23.96.04-1.83,1.02-3.65,1.63-5.45.92-2.67,2.71-5.31,2.73-7.97.19-31.78.09-63.56.17-95.35,0-3.3-.72-5.82-2.97-8.5-2.63-3.11-4.23-7.12-6.1-10.84-1.63-3.25-3-6.63-4.5-9.95-1.21-2.68-2.44-5.34-3.96-8.66Zm-175.28,545.33c3.68,5.02,15.3,8.08,18.93,4.54,3.99-3.9,8.31-3.24,12.85-3.53,2.18-.14,4.61-.58,6.42-1.7,5.71-3.52,12.57-5.44,16.58-11.47.27-.4,1.27-.24,1.85-.51,2-.94,4.23-1.64,5.88-3.03,2.92-2.45,5.65-5.19,8.1-8.11,1.38-1.64,2.02-3.9,3.05-5.84.67-1.26,1.28-2.61,2.19-3.68,2.65-3.09,3.67-23.52,1.19-26.81-.6-.79-1.37-1.45-2.07-2.16-5.53-5.53-11.14-10.98-16.54-16.62-2.25-2.35-4.76-4.22-7.81-2.69-2.97,1.49-5.34,3.93-4.89,7.92.38,3.4-.55,6.14-2.97,9-2.72,3.2-4.36,7.4-6.12,11.32-1.95,4.34-2.66,9.49-5.42,13.14-4.07,5.38-5.06,12.88-11.48,16.6-.69.4-.88,1.67-1.31,2.53-1.06,2.1-1.71,4.6-3.26,6.23-4.9,5.16-10.14,9.99-15.16,14.86Zm-109.52-750.47c-3.8,2.02-5.43,4.8-5.09,8.99.15,1.81-.19,4.35-1.35,5.45-2.73,2.59-3.17,5.47-3.27,8.95-.17,6.06,2.03,12.71-4.02,17.59-.8.64-.44,2.85-.45,4.33-.03,9.82-.15,19.65.04,29.46.11,5.75-.51,11.15,3.53,16.88,2.67,3.79,1.7,10.47,5.49,15.03,1.79,2.16,2.52,5.2,3.73,7.84.83,0,1.65.02,2.48.03,2.69-7.31,5.42-14.6,8.01-21.95.37-1.04.05-2.31.05-3.48,0-2.83-.21-5.68.08-8.48.18-1.67,1.15-3.26,1.76-4.89.83-2.21,2.33-4.41,2.37-6.63.24-12.15.18-24.3.08-36.46-.04-4.98,1.47-10.45-3.7-14.19-.5-.36-.69-1.6-.53-2.32,1.73-8.22-4.54-11.68-9.2-16.15Zm343.44,517.92c-6.44,4.45-11.22,9.69-9.62,18.44.29,1.61-.02,4.18-1.08,5.03-3.43,2.76-3.2,6.27-3.17,9.95.06,7.32-.04,14.64.06,21.96.02,1.59.03,3.86,1,4.62,3.78,2.97,3.73,6.93,3.22,10.85-.93,7.19,4.74,11.71,6.8,17.69,1.53,4.45,6.04,8.12,6.75,12.54,1.07,6.66,6.45,8.7,9.56,12.91,3.89-2.41,5.3-5.29,5.06-9.45-.35-6.3-.02-12.64-.15-18.96-.03-1.56-.24-3.75-1.24-4.54-3.57-2.8-3.33-6.46-3.44-10.33-.15-5.58,1.85-11.72-3.88-16.13-.82-.63-.59-2.82-.6-4.29-.05-7.99.02-15.97-.07-23.96-.02-1.6,0-3.95-.95-4.66-4.62-3.42-3.83-8.19-3.56-12.71.25-4.12-1.03-7.08-4.69-8.97Zm-187.89,59.36c-1.83,1.39-3.48,3.57-5.51,4.01-5.77,1.23-10.34,6.55-16.98,4.87-.68-.17-1.69,1.49-2.71,1.96-2.12.99-4.38,2.55-6.53,2.45-4.33-.19-8.19,1.01-9.29,4.92-1.08,3.87-1.95,8.59,2.21,11.97.84.68,1.34,1.83,1.89,2.82,1.47,2.61,2.46,5.64,4.42,7.8,4.92,5.41,10.39,10.33,15.4,15.66,2.47,2.63,4.41,5.74,6.6,8.64.85-.38,1.7-.75,2.55-1.13,1.16-2.55,2.27-5.13,3.5-7.64.64-1.29,1.64-2.4,2.24-3.7.93-2,2.15-4.05,2.36-6.17.38-3.79-.01-7.65.17-11.47.08-1.55.33-3.65,1.34-4.5,2.99-2.5,3.09-5.59,2.98-8.99-.13-4.16-.3-8.34.05-12.48.35-4.17-1.12-7.04-4.7-9.02Zm334.1,82.26c-4.45-6.75-11.31-10.63-14.39-18.8-2.66-7.06-11.43-11.07-14.46-19.29-1.09-2.94-2.86-5.51-2.88-8.92-.02-3.06.45-7.08-1.23-8.96-2.83-3.17-3.13-6.33-3.08-10.01.07-5.32-.23-10.66.09-15.97.27-4.35-1.25-7.35-5.02-9.36-3.86,2.03-4.72,5.18-5,9.39-.51,7.6,3.34,16.06-2.61,21.24,1.1,4.72,2.27,8.3,2.7,11.96.66,5.71-1.79,12.15,4.44,16.37.4.27.23,1.28.51,1.85,2.62,5.24,4.26,11.44,8.15,15.46,5.88,6.07,10.69,13.22,19.82,16.43,8.74,3.07,8.22,4.57,12.95-1.4Zm-58.84-545.28c11.66-11.74,23.38-23.52,35.08-35.31.45-.46,1.13-1.11,1.07-1.6-.53-4.81,3.23-7,5.93-9.77,5.52-5.64,5.35-7.73-.92-12.18-2.55,1.32-5.03,3.73-7.31,3.55-5.51-.44-9.08,1.84-12.44,5.67-2.95,3.37-6.55,6.19-9.42,9.61-4.75,5.67-12.65,9.01-13.33,17.76-.04.52-.86.97-1.3,1.47-4.55,5.23-3.34,16.23,2.64,20.79Zm31.96,36.57c2.13,3.88,5.11,5.24,9.45,5.18,16.77-.23,33.55,0,50.32-.2,2.22-.03,4.41-1.57,6.62-2.39,2.05-.76,4.14-2.2,6.16-2.11,4.29.18,7.32-1.12,9.22-4.94-1.89-3.52-4.68-4.7-8.61-4.64-12.29.21-24.58.04-36.87.09-4.69.02-9.7-1.16-13.21,3.61-.49.67-2.13.65-3.25.67-3.49.08-7,.29-10.46-.03-4.1-.38-7.08,1-9.38,4.76Zm160.47,239.42q-4.22-5.57-9.2-5.59c-8.14-.01-16.28-.08-24.42.06-1.69.03-4,.37-4.94,1.48-2.42,2.88-5.44,3.29-8.55,2.71-8.62-1.61-12.76,4.09-17.1,9.52,2.26,3.8,5.26,4.99,9.35,4.78,6.46-.33,12.96.06,19.43-.18,1.78-.07,3.51-1.3,5.28-1.97,2.06-.78,4.1-2.03,6.21-2.19,5.02-.38,10.44,1.08,14-4.19.29-.43,1.22-.38,1.81-.65,2.64-1.21,5.27-2.45,8.12-3.78Zm-669.81-33.27c1.91-1.6,3.48-2.91,4.95-4.14-.6-.84-.74-1.17-.98-1.38-4.01-3.44-7.07-7.49-12.88-9.37-3.82-1.24-7.87-2.32-11.58-3.78-5.38-2.12-10.43-4.73-16.34-5.13-.64-.04-1.19-1.1-1.81-1.65-5.28-4.75-16.47-2.97-20.59,4.2,6.08,4.05,11.95,10.91,18.4,11.5,8.28.76,14.56,8.09,23.26,5.63,1.85-.52,3.97.01,5.96-.09,4.55-.24,9.02-.36,11.6,4.2Zm678.38,101.04c-2.05-3.7-4.91-5.1-9.04-4.95-3.35.13-7.62.43-9.91-1.36-3.23-2.53-6.23-3.27-9.95-3.14-1.1.04-2.74.02-3.25-.65-3.16-4.15-7.5-4.2-12.06-4.09-.98.02-2.12-.77-2.97-1.46-5.77-4.71-12.05-4-16.62,2.3,1.56,1.35,3.17,3.93,4.74,3.9,5.23-.08,7.17,4.19,10.54,6.58,1.98,1.41,4.51,2.14,6.88,2.87,1.97.61,4.94.04,5.97,1.25,3.06,3.61,6.81,3.53,10.82,3.46,5.15-.09,10.31-.25,15.44.05,4.07.24,7.11-.94,9.42-4.78ZM402.13,444.52c-2.63-4.9-5.85-5.87-10.1-5.78-12.32.26-24.64.07-36.96.1-4.58.01-8.1,2.92-8.25,6.72-.16,4,3.48,7.37,8.15,7.4,7.66.05,15.32.08,22.98,0,5.16-.06,10.79,1.42,14.56-3.96.3-.43,1.23-.38,1.82-.66,2.63-1.26,5.23-2.55,7.81-3.81Zm876.08,668.76c1.71-4.03,2.28-8.21,4.68-10.38,4.54-4.11,3.3-8.94,3.65-13.75.14-1.86.3-4.33,1.47-5.38,2.84-2.56,3.26-5.5,3.14-8.94-.15-4.31-.25-8.64.02-12.94.27-4.22-1.5-6.84-4.98-8.52-3.79,2.21-5.01,5.28-4.71,9.34.12,1.66-.24,4.04-1.33,4.96-3.13,2.63-3.28,5.84-3.17,9.41.13,4.64.19,9.3-.05,13.94-.09,1.65-.78,3.55-1.83,4.83-4.52,5.49-4.03,11.27,3.11,17.44Zm-450.85-279.06c2.47-2.99,4.68-4.51,5.19-6.48,2.95-11.39-3.59-21.41-5.15-32.18-.12-.8-1.4-1.38-1.97-2.19-.64-.91-1.13-1.94-1.62-2.94-1.27-2.64-2.51-5.31-4.29-9.1-2.35,3-5.04,4.88-4.89,6.51.64,7.27-2.38,14.55,2.82,22,2.86,4.1,2.4,10.93,5.98,15.79,1.6,2.17,2.32,4.98,3.94,8.6Zm-535.55-133.98c-8.75-10.41-33.72-13.29-40.7-4.95,7.45,10.44,33.22,13.7,40.7,4.95Zm678.49-19.2c-4.98-2.94-9.5-5.96-14.33-8.37-5.94-2.96-12.13-5.41-18.99-8.42-.72.65-2.27,2.04-4.24,3.81,5.33,3.52,7.31,9.36,14.14,9.97,3.79.34,7.64,3.14,10.89,5.59,5.73,4.32,7.37,4.32,12.52-2.58Zm-619.02,160.11c2.48,4.28,4.99,5.63,8.98,5.91,4.46.31,6.8-3.62,10.02-4.06,6.66-.91,8.76-6.45,13.12-9.61-2.19-4-5.11-6.39-9.08-4.59-4.46,2.03-8.48,5.02-12.71,7.56-.69.41-1.48.64-2.21.99-2.65,1.23-5.3,2.48-8.12,3.8Zm-81.67-84.99c-3.23-4.25-6.54-8.2-10.28-4.79-4.12,3.75-8.3,3.6-12.78,3.31-4.35-.29-7.2,1.32-9.27,5.04,2.2,3.38,4.89,5.2,9.08,4.9,4.7-.33,9.73.89,13.03-3.98.3-.44,1.19-.44,1.78-.71,2.67-1.18,5.33-2.38,8.44-3.77Zm651.1-93.6s.8-.6,1.49-1.28c.68-.66,1.26-1.42,1.88-2.14-6.47-10.4-18.69-11.63-27.08-18.08-1.77,1.23-3.45,2.41-5.51,3.85,4.12,3.74,6.9,7.3,10.53,9.34,5.74,3.23,12.06,5.44,18.69,8.32Zm-633.39,184.93c-2.97-6.5-8.11-6.32-12.67-5.15-2.29.59-5,3.72-5.42,6.08-.36,2.01,1.82,5.16,3.76,6.65,1.31,1.01,4.65.78,6.21-.24,3.11-2.03,5.61-4.99,8.12-7.34Zm146.26-354.7c5.52,7.29,7.21,7.51,12.76,2.86.73-.61,1.6-1.11,2.47-1.51,2.75-1.26,5.53-2.45,8.6-3.8-5.78-7.19-6.87-7.3-13.1-2.49-.75.58-1.71.88-2.58,1.28-2.54,1.15-5.08,2.29-8.14,3.66Zm531.78,308.71c2.2,1.51,4.09,3.02,6.18,4.18,1.5.83,3.55.83,4.83,1.85,5.25,4.21,7.86,3.76,11.96-2.98-2-1.26-3.94-2.65-6.03-3.76-1.38-.73-3.26-.72-4.41-1.65-5.69-4.62-6.99-4.53-12.52,2.36ZM437.57,424.23c-1.43,3.61-3.47,6.43-3.33,9.15.1,1.95,2.75,4.59,4.86,5.45,3.8,1.53,6.41-1.16,8.55-4.56-2.95-2.93-5.94-5.91-10.09-10.04Zm47.03,42.84c-3.46-3.65-6.35-6.69-9.47-9.99-1.68,1.76-3.08,3.23-3.72,3.9,3.07,3.68,5.74,6.9,8.14,9.78,2.06-1.51,3.63-2.65,5.05-3.69Zm-133.73,305.96c3.53-3.32,6.57-6.18,9.15-8.61-1.22-1.61-2.38-3.16-3.53-4.67-3.35,3.17-6.41,6.07-9.43,8.94,1.57,1.79,2.85,3.24,3.82,4.35Zm523.02-141.6c-1.47-1.78-2.8-3.39-4.16-5.03-2.2,1.93-3.68,3.23-5.13,4.5,1.73,2.06,3.07,3.64,4.77,5.67,1.75-1.99,2.94-3.35,4.51-5.13Zm17.6,9.99c-1.39-2.21-2.42-3.86-3.61-5.75-2.08,1.83-3.5,3.09-4.19,3.7,1.44,2.53,2.49,4.36,3.66,6.4,2.12-2.22,3.35-3.51,4.15-4.34Zm-622.67,108.86c1.84,1.8,3.29,3.23,4.24,4.15,2.06-1.34,3.71-2.41,5.47-3.54-1.9-2.14-3.2-3.6-4.84-5.46-1.85,1.84-3.22,3.21-4.87,4.85Zm659.41-82.42c2.26-1.63,3.95-2.86,5.35-3.87-1.79-2.26-3-3.8-4.56-5.76-1.89,1.98-3.25,3.4-5.13,5.38,1.72,1.7,3.21,3.16,4.33,4.26Zm29.18,127.51c1.21,2.12,2.26,3.94,3.42,5.98,2.04-2.14,3.36-3.54,4.67-4.91-1.54-1.77-2.82-3.26-4.64-5.35-1.55,1.92-2.77,3.44-3.46,4.29Z"/>
</svg>