<?xml version="1.0" encoding="UTF-8"?>
<svg id="Layer_1" data-name="Layer 1" xmlns="http://www.w3.org/2000/svg" viewBox="0 0 1816.43 1991.23">
  <path d="m737.96,1788.46c.54-8.19-.33-16.77,1.82-24.51,31.29-112.39-7.51-199.59-96.05-269.12-44.92-35.27-92.38-64.93-152.03-66.39-57.41-1.41-105.68,21.7-149.65,56.27-17.91,14.08-35.89,28.12-54.39,41.39-5.14,3.69-12.3,4.57-18.53,6.74-1.21-2.03-2.42-4.07-3.64-6.1,6-5.58,11.59-11.71,18.08-16.64,15.1-11.49,30.23-23.01,46.07-33.43,41.3-27.15,61.35-65.34,64-114.41,2.69-49.77-2.35-97.27-30.54-140.13-28.82-43.81-68.56-59.89-119.45-47.89-3.08.73-6.24,2.19-9.25,1.93-4.5-.39-8.9-2.01-13.34-3.1,3.08-3.81,5.42-9.66,9.37-11.1,25.53-9.33,51.58-17.25,77.15-26.48,43.48-15.69,81.27-40.95,115.45-71.63,7.42-6.66,13.19-15.28,19.11-23.44,7.74-10.67,5.87-16.15-8.46-18.56-47.29-7.95-94.2-18.22-141.6-25.35-27.44-4.13-55.53-3.88-83.32-5.76-7.18-.49-14.31-1.6-21.47-2.43-.33-1.84-.66-3.68-.99-5.51,4.43-1.79,8.85-5.14,13.28-5.15,67.01-.11,107.32-39.22,135.8-94.01,63.92-122.98,44.06-251.38-53.11-350.56-11.52-11.76-23.35-23.33-33.58-36.16-3.24-4.06-1.72-11.91-2.38-18.03,5.32,1.9,11.89,2.41,15.74,5.91,21.99,20,41.72,42.83,65.24,60.72,42.42,32.27,92.74,42.67,145.08,42.26,78.13-.61,150.59-24.81,220.95-56.34,71.25-31.93,137.73-72.38,186.31-133.95,26.1-33.08,41.11-74.91,61.07-112.82,1.47-2.79,1.72-6.49,3.74-8.64,3.48-3.71,7.91-6.53,11.94-9.72.95,5.47,4.08,11.69,2.49,16.28-10.55,30.48-22.81,60.37-33.18,90.9-18.48,54.38-22.38,107.78,14.46,157.3,1.79,2.41,2.36,5.73,4.84,12.06,20.33-17.51,40.75-33.07,58.76-51.05,30.89-30.84,65.47-49.34,110.72-50.08,40.35-.66,80.56-7.82,120.9-11.22,64.46-5.44,116.1-36.67,162.45-79.02,1.87-1.71,3.51-4.1,5.73-4.91,5.6-2.04,11.46-3.36,17.22-4.97-2.29,5.86-3.06,13.18-7.09,17.37-58.4,60.79-132.51,86.17-214.32,93.44-36.59,3.25-73.52,3.99-109.75,9.47-17.85,2.7-38.19,9.58-50.97,21.47-49.78,46.29-102.5,88.52-158.86,126.31-22.34,14.97-34.51,36.56-42.29,61.22-14.63,46.42-29.28,92.85-43.01,139.55-2.42,8.23-.34,17.78-.34,26.72,2.14.35,4.28.7,6.41,1.04,3.35-5.64,7.27-11.02,9.95-16.96,16.12-35.75,31.96-71.63,47.89-107.47,13.56-30.5,33.1-56.01,57.98-78.77,30.2-27.63,57.53-58.42,85.88-88.06,6.55-6.85,11.66-15.11,18.47-21.64,3.46-3.32,9.23-4.24,13.95-6.25-.5,5.03.83,11.51-1.8,14.87-19.92,25.37-36.84,55.12-61.83,74.1-63.79,48.43-102.18,112.25-129.89,185.2-10.96,28.86-26.86,55.82-39.99,83.88-8.65,18.48-2.98,26.04,17.52,24.14,19.89-1.84,34.34-13.49,44.79-29,26.48-39.32,48.96-81.7,78.38-118.6,35.36-44.37,74.67-86.41,129.93-107.65,29.42-11.31,59.82-9.87,89.86-2.77,27.54,6.51,40.25,30.33,29.44,59.31-5.79,15.51-15.04,31.87-27.39,42.38-33.59,28.59-70.81,52.94-104.33,81.62-19.76,16.9-35.74,38.41-52.26,58.79-4.35,5.37-5.58,14.15-6.18,21.53-2.15,26.31,14.96,40.2,37.9,27.6,40.36-22.17,82.09-43.87,117.24-73.01,55.55-46.05,113.01-87.33,179.87-115.13,34.41-14.31,61.44-38.2,79.11-71.02,34-63.14,86.86-104.44,151-132.92,5.57-2.47,13.11-.52,19.73-.63-4.34,5.06-7.78,11.62-13.21,14.89-15.15,9.12-31.31,16.55-46.74,25.23-32.03,18.04-60.11,41.4-77.34,73.91-33.96,64.03-88.42,101.12-152.86,129.73-34.18,15.17-67.05,36.78-94.99,61.68-44.97,40.08-96.11,69.67-147.37,99.62-17.93,10.47-37.13,13.92-54.9-.77-15.03-12.41-18.5-37.4-9.36-59.91,2.31-5.68,4.73-11.3,8.37-19.95-31.46-1.72-60.79-4.32-74.44-33.98l3.78-6.18c4.16,2.88,8.6,5.45,12.45,8.7,23.83,20.1,62.28,22.99,89.88-1.77,31.4-28.17,68.68-49.72,100.91-77.08,17.41-14.78,31.89-34.36,43.59-54.19,12.92-21.9,5.07-38.32-19.87-43.94-47.69-10.73-92.29-2.83-129.23,31.06-52.58,48.24-97.05,103-131.17,166.12-8.57,15.85-20.96,30.17-33.76,43.04-14.53,14.59-33.83,19.68-54.39,16.81-22.97-3.2-29.87-15.68-21.4-37.49,2.5-6.43,5.42-12.69,8.89-20.74-27.44-14.3-16.55-38.36-12.82-62.33-70.12-1.35-134.25-20.58-197.12-45.3-.83,1.73-1.67,3.47-2.5,5.2,13.18,10.29,26.43,20.49,39.54,30.88,15.88,12.59,31.01,26.26,47.78,37.49,5.68,3.8,16.34,4.17,23.05,1.65,20.28-7.61,39.74-17.4,59.51-26.34.99,1.97,1.99,3.93,2.98,5.9-20.11,11.67-40.22,23.35-58.94,34.21,19.98,21.83,38.56,42.19,57.19,62.49,18.4,20.04,37.92,39.37,42.62,71.66-16.5-19.5-30.28-37.48-45.84-53.76-18.35-19.21-38.35-36.83-57.4-55.38-8.58-8.36-15.2-8.21-23.6,1.13-36.38,40.45-73.42,80.31-110.08,120.5-3.36,3.69-6.46,7.91-8.54,12.41-5.29,11.4-4.26,19.56,11.19,20.04,67.72,2.08,135.43,4.64,203.17,6.29,9.88.24,19.8-4.04,29.83-5.05,4.09-.41,8.49,2.29,12.76,3.58-3.45,3.49-6.67,9.72-10.39,10.04-24.57,2.06-49.25,2.82-73.89,4.1-3.66.19-7.29.94-17.57,2.32,42.97,31.56,43.08,71.79,31.62,114.77,1.98,1.1,3.97,2.19,5.95,3.29,26.89-26.41,53.78-52.83,80.13-78.72,4.06,10.56,3,17.01-10.09,30.09-21.03,21.02-42.84,41.27-64.7,61.44-4.5,4.15-10.65,6.51-14.76,13.4,59.93,1.95,103.79,22.27,120.34,83.68,1.7-.97,3.39-1.95,5.09-2.92,1.93-10.71,4.06-21.39,5.71-32.14,1.06-6.87.2-14.27,2.39-20.68,2.3-6.71,7.22-12.53,10.99-18.74,1.06,7.45,3.58,15.03,2.88,22.31-1.33,13.81-4.75,27.41-6.79,41.18-.77,5.18-.12,10.58,2.04,17.56,32.25-32.52,66.34-58.68,120.57-51.51-11.7-19.43-20.74-34.05-29.4-48.89-21.63-37.08-44.45-73.57-64.05-111.71-10.09-19.63-6.64-40.69,10.19-57.73,11.15-11.29,28.63-14.26,40.49-3.52,20.5,18.56,41.35,37.23,58.9,58.47,43.88,53.11,84.81,108.69,129.39,161.19,18.03,21.24,42.45,37.07,63.99,55.33,3.98,3.37,8.07,6.6,12.12,9.9-.88,2.26-1.76,4.51-2.64,6.77-9.41-2.29-20.64-2.09-27.86-7.37-16.7-12.22-33.55-25.36-46.65-41.18-52.43-63.37-103.22-128.09-155.21-191.84-9.49-11.64-20.62-22.75-33.13-30.8-7.09-4.56-21.11-6.32-27.27-2.22-6.57,4.37-10.87,17.38-10.19,26.16.95,12.13,5.51,25.04,11.96,35.5,31.23,50.61,63.21,100.77,95.68,150.61,49.43,75.88,85.42,157.86,112.64,243.94,1.14,3.61,3.06,7.56,2.51,11.01-1.2,7.56-1.58,18.53-6.33,21.37-5.3,3.16-18.12,1.72-22.3-2.74-11.8-12.6-22.59-26.88-30.5-42.18-8.64-16.73-12.45-35.9-20.44-53.03-11.42-24.46-27.83-44.03-57.91-45.49-12.11-.59-17.04,5.2-12.74,16.34,14,36.27,14.64,74.06,15.26,112.17.15,9.47,5.36,20.9,11.99,27.88,29.52,31.09,62.04,59.46,90.38,91.54,35.24,39.89,79.67,65.45,124.76,91.55,32.58,18.85,62.68,42.21,92.71,65.1,8.49,6.47,12.82,18.39,19.06,27.81-1.69,1.78-3.39,3.56-5.08,5.34-4.38-1.93-10.64-2.63-12.85-5.99-27.84-42.32-71.61-63.07-114.25-85.36-55.14-28.82-102.83-65.89-140.6-116.39-15.97-21.35-38.3-38.34-59.29-55.41-14.38-11.71-21.24-24.32-22.76-43.15-3.09-38.24-8.58-76.34-14.57-114.26-3.51-22.17,5.03-34.94,27.87-33.69,29.65,1.62,51.71,17.77,65.04,43.13,11.4,21.69,18.15,45.78,28.44,68.12,5.76,12.5,14.54,23.61,21.96,35.34,2.07-.87,4.14-1.74,6.21-2.61,0-3.82,1.16-8.11-.17-11.39-29.51-72.53-52.17-148.06-95.68-214.45-19.98-30.48-41.83-39.63-76.39-26.15-44.41,17.33-72.68,51.47-84.74,96.13-14.66,54.28-24.7,109.81-36.61,164.82-2.54,11.73-5.9,23.56-6.21,35.41-.19,7.25,2.97,18.91,7.8,20.91,6.29,2.6,16.96-.43,23.61-4.51,33.37-20.47,66.02-42.1,98.98-63.24,3.18-2.04,6.63-4.81,10.08-5.01,5.41-.31,10.94,1.27,16.41,2.05-3.66,4.17-6.5,10.18-11.11,12.22-60.01,26.59-113.17,62.07-152.21,115.96-34.22,47.23-50.98,101.31-61.12,157.95-1.18,6.62-4.15,12.91-6.28,19.36-2.93-.61-5.87-1.22-8.8-1.82Zm198.54-1239.88c-34.86-42.08-53.91-85.22-40.35-138.81-18.54,15.92-39.06,29.66-50.22,48.84-7.73,13.3-16.76,20.57-28.47,26.83-86.07,46.01-173.26,89.5-269.98,108.99-40.71,8.21-81.37,19.67-123.34,4.43-14.06-5.11-29.48-6.48-44.27-9.56-.68,1.53-1.35,3.07-2.03,4.6,5.01,4.38,9.82,9.02,15.06,13.11,17.45,13.58,35.26,26.7,52.55,40.47,92.18,73.37,194.39,122.23,313.75,130.66,19.68,1.39,30.69-3.8,35.32-24.12,4.34-19.03,12.25-37.22,18-55.96,11.66-38.05,19.34-78.18,53.78-98.7v-128.38c19.01-2.04,25.05,6.98,22.83,23.55-1.18,8.77-2.74,17.5-3.79,26.29-2.59,21.51-4.98,43.04-8.1,70.18,22.96-16.43,41.18-29.48,59.27-42.43Zm-160.08,1064.9c2.54.03,5.07.06,7.61.09,2.6-17.15,3.55-34.77,8.15-51.37,10.56-38.12,24.84-75.29,34.04-113.69,12.49-52.12,24.61-104.63,18.32-159.18-7.84-68-68.95-110.4-129.39-81.8-42.27,20-77.97,53.89-119.98,83.98,12.98,9.72,21.2,16.17,29.73,22.17,9.69,6.82,22.31,11.26,29.03,20.21,19.7,26.23,39.04,53.1,54.93,81.72,22.97,41.35,42.96,84.37,63.67,126.94,2.12,4.36.33,10.55.63,15.88,1.02,18.36,2.17,36.71,3.27,55.06Zm-104.9-770.03c-59.26-46.02-112.31-87.94-166.27-128.65-14.98-11.3-31.93-20.85-49.37-27.68-9.27-3.63-24.19-3.37-31.48,2.01-5.32,3.92-4.98,19.75-2.62,29.12,12.63,50.27,25.28,100.62,40.76,150.06,9.94,31.76,22.6,63.14,38.08,92.56,12.93,24.57,27.34,26.46,47.13,7.49,40.88-39.19,79.86-80.35,123.77-124.91Zm-73.1,394.38c-7.99,4.39-17.63,6.54-18.9,11.04-2.64,9.35-.83,19.94-.85,30.03,7.83-2.02,17-2.12,23.22-6.45,12.81-8.92,23.38-21,36.04-30.17,35.28-25.55,66.82-53.91,83.76-95.57,21.19-52.13-2.16-97.29-57.78-105.44-39.29-5.76-79.22-7.6-118.95-9.32-6.81-.29-17.31,7.36-20.27,13.96-4.38,9.77-7.27,23.04-4.23,32.78,9.15,29.32,19.51,58.62,33.11,86.09,13.09,26.43,30.82,50.57,44.85,73.04Zm-323.24-258.64c31.39,5.07,61.16,9.56,90.8,14.76,24.7,4.33,49.25,9.54,73.88,14.29,13.37,2.58,21.14-3.34,21.78-16.56,1.14-23.81,6.41-48.93.93-71.28-16.38-66.82-36.6-132.73-56.39-198.68-10.94-36.48-10.07-40.02,24.93-52.55,2.21-.79,4.17-2.24,9.2-5.01-26.88-21.82-52.07-42.26-77.26-62.71,45.98,144.46,28.94,270.79-87.87,377.74Zm487.57,652.64c.35-6.49.83-10.25.68-13.97-.23-5.68-.82-11.34-1.4-17-7.23-70.32-36.65-132.18-73.29-191.21-23.84-38.4-50.82-73.95-89.54-99.08-9.16-5.94-16.14-7.42-25.43-.1-25.82,20.34-52.48,39.61-78.47,59.73-18.66,14.44-36.79,29.57-55.85,44.96,161.34-6.53,257.59,79.27,323.31,216.66Zm-419.46-464.29c-.79,1.89-1.58,3.77-2.38,5.66,72.67,69.49,78.3,154.83,57.2,249.7,7.44-4.63,12.17-7.21,16.51-10.33,23.6-17,48.75-32.32,70.17-51.73,22.2-20.1,41.25-43.81,60.69-66.77,9.67-11.42,7.61-22.04-4.88-32.34-36.94-30.46-77.28-55.17-121.86-72.15-24.41-9.3-50.25-14.82-75.45-22.04Zm-24.6-19.65c-.19,1.82-.37,3.64-.56,5.46,94.82,3.19,169.98,51.52,246.13,107.73,1.5-13.02,5.3-22.35,2.89-29.63-6.24-18.88-13.95-37.53-23.36-55.05-23.14-43.09-48.45-85.2-33.41-137.57.81-2.8-2.43-8.6-5.36-10.33-13.64-8.05-40.58-1.25-47.96,12.99-15.79,30.46-40.58,51.38-69.39,68.17-22.71,13.23-45.97,25.52-68.99,38.22Zm161.11-182.35c-2.52,9.94-6.33,21.11-7.75,32.58-.53,4.24,4.05,12.73,7.18,13.19,13.58,1.97,27.53,2.43,41.26,1.72,3.46-.18,8.65-6.34,9.27-10.35.56-3.58-3.09-9.49-6.58-11.75-13.4-8.64-27.48-16.22-43.39-25.4Zm318.92,635.43c1.65,1.08,3.31,2.16,4.96,3.25,6.5-8.94,13.65-17.51,19.05-27.07,1.45-2.56-2.46-8.14-3.91-12.33-3.38,2.01-8.55,3.24-9.82,6.16-4.19,9.67-6.97,19.95-10.29,29.99Z"/>
  <path d="m1115,981.32c-22.19,6.04-44.41,11.98-66.54,18.22-4.81,1.36-9.17,4.91-13.97,5.46-3.36.39-7.1-2.61-10.67-4.1,1.56-3.74,2.14-9.43,4.89-10.82,5.45-2.76,12.09-3.17,18.25-4.53,31.75-6.98,63.49-13.94,95.24-20.91.13-1.75.26-3.5.39-5.25-17.56-6.76-35.11-13.52-52.67-20.28.47-3.26.94-6.53,1.41-9.79,74.94,35.09,146.18,12.7,217.2-13.02.81,2.18,1.62,4.36,2.43,6.53-5.37,6.17-10.74,12.34-17.25,19.81,6.11,5.05,12.48,9.14,17.27,14.61,4.8,5.48,8.04,12.33,12.28,19.08,24.62-18.84,48.29-36.96,76.66-58.67-73.75,1.93-132.88-20.37-179.32-71.21,1.02-2.27,2.03-4.53,3.05-6.8,6.33,3.23,12.79,6.22,18.96,9.72,27.33,15.48,53.11,35.14,82.19,45.77,47.08,17.19,94.67,2.16,142.8-9.31-65.65-15.7-124.07-42.6-167.94-93.7,1.26-2.3,2.52-4.61,3.78-6.91,5.38,2.7,11.66,4.39,16.01,8.26,90.1,80.09,194.08,97.59,308.44,68.96,8.59-2.15,17.12-4.77,25.84-6.08,2.94-.44,6.39,2.47,9.61,3.84-1.67,3.59-3.2,7.25-5.1,10.7-.5.91-2.13,1.3-3.32,1.7-64.94,21.75-100.25,73.42-127.16,131-21.06,45.03-38.03,92.18-53.86,139.37-8.16,24.32-9.76,50.81-14.61,76.27-1.19,6.23-3.52,12.23-5.86,20.13-15.26-19.11,4.55-114.54,34.49-188.75,24.34-60.34,55.47-116,101.9-163.71-84.61,9.79-167.2,24.51-233.23,82.11-63.97,55.8-100.6,130.12-126.91,210.21-2.17-.68-4.33-1.36-6.5-2.04,0-6.06-1.94-12.97.31-18.03,16.6-37.4,33.8-74.54,51.3-111.52,9.94-21.02,22.56-40.94,30.76-62.56,7.83-20.65-1.16-30.93-23.17-32.34-50.27-3.21-97.54,8.5-140.01,34.13-37.15,22.42-55.22,59.48-63.11,101.55-1.32,7.06-3.09,14.04-5.39,24.36-14.5-35.01.98-77.66,42.76-126.13-.54-1.77-1.08-3.55-1.62-5.32Z"/>
  <path d="m1132.01,1190.78c8.73-18.28,24.45-24.03,40.34-20.29,17.3,4.07,33.91,12.92,49.45,22.02,10.9,6.38,18.65,9.45,30.55,1.41,18.39-12.43,39.06-10.55,57.81-.27,15.43,8.46,29.03,20.23,44.29,29.07,5,2.9,12.65,1.54,19.09,1.56,9.65.03,20.55-3.51,28.75-.19,46.42,18.84,74.82,51.41,85.08,102.77,20.11,100.76,52.7,197.62,103.76,287.56,2.5,4.41,1.44,10.85,2.04,16.34-5.62-3.02-14.1-4.63-16.39-9.28-17.26-35.11-34.44-70.35-49.49-106.44-26.83-64.35-46.39-130.93-59.1-199.63-7.25-39.18-35.15-61.37-70.09-76-3.44-1.44-7.33-2.04-11.07-2.46-1.61-.18-3.39,1.1-8.34,2.9,6.12,6.14,11.65,10.62,15.73,16.18,2.74,3.73,3.4,8.98,4.99,13.56-5.04-.37-11.47,1.13-14.9-1.42-18.28-13.56-34.72-29.87-53.93-41.8-16.09-10-34.77-16.37-53.02-22.08-6.34-1.98-14.8,2.85-22.3,4.57-.41,1.97-.81,3.93-1.22,5.9,15.1,9.61,30.66,18.6,45.06,29.17,4.86,3.56,6.79,11.1,10.06,16.82-6.12-.43-13.6,1.25-18.13-1.66-24.46-15.69-49.02-31.45-71.94-49.25-24.3-18.88-48.32-33.07-79.63-17.22-1.2.61-3.42-.78-7.45-1.84Z"/>
</svg>