<?xml version="1.0" encoding="UTF-8"?>
<svg id="Layer_1" data-name="Layer 1" xmlns="http://www.w3.org/2000/svg" viewBox="0 0 985.46 1452.01">
  <path d="m557.18,474.83c-2.97-2.05-6.2-3.81-8.87-6.21-23.9-21.51-49.59-20.95-69.8,4.25-20.05,25-34.42,53.89-37.49,86.06-2.9,30.35-2.77,61.09-2.09,91.62.3,13.5,5.98,29.35,21.79,29.14,10.11-.13,22.64-8.54,29.6-16.95,16.68-20.15,29.2-43.79,46.26-63.54,14.33-16.59,32.96-29.41,49.12-44.52,3.85-3.6,7.33-9.5,7.72-14.6,2.31-30.14,16.23-41.67,46.08-36.91,5.79.92,11.56,1.93,17.35,2.9.92-2.09,1.84-4.18,2.76-6.27-7.28-3.75-14.57-10.65-21.84-10.64-19.9.03-39.85,2.54-59.68,4.88-28.74,3.39-57.36,7.88-86.13,10.9-4.47.47-9.5-4.34-14.27-6.71,4.81-1.62,9.51-3.97,14.45-4.76,34.11-5.4,68.15-11.6,102.45-15.19,18.53-1.94,37.8-.9,56.26,1.94,12.41,1.91,21.43,10.69,21.58,25.99.05,4.63,5.36,10.01,9.49,13.65,14.27,12.58,20.22,28.07,12.55,44.94-23.67,52.07-32.84,107.68-40.57,163.47-7.5,54.13-13.9,108.51-17.74,162.99-1.27,17.98,5.58,37.06,11.22,54.84,4.53,14.26,8.77,27.21,1.79,41.87-6.51,13.67,2.15,24.03,10.93,32.51,18.04,17.44,36.54,34.5,55.87,50.48,29.15,24.1,59.18,47.15,92.1,68.16-4.42-7.03-9.15-13.89-13.21-21.13-33.27-59.18-72.61-113.79-120.51-162.13-3.36-3.39-3.33-10.15-4.87-15.34,4.92,2.2,10.78,3.38,14.57,6.83,7.69,7,14.26,15.23,25.12,27.15.68-10.79,1.58-16.39,1.3-21.92-1.88-36.8-3.57-73.62-6.19-110.37-2.32-32.5,1.09-62.13,21.2-90.5,9.58-13.51,11.3-34.96,10.79-52.64-.57-20.07-7.61-39.96-13.91-59.84-29.44,49.5-28.74,105.34-33.37,159.94-1.74-.15-3.48-.31-5.22-.46-1.06-2.79-2.96-5.56-3.07-8.39-1.95-50.68,4.28-99.94,22.43-147.81,8.44-22.26,14.57-45.76,18.59-69.24,8.08-47.11-12.16-84.13-54.74-106.36-17.27-9.02-34.88-17.86-50.69-29.1-26.38-18.76-27.16-62.44-2.69-83.68,1.27-1.1,3.88-.66,10.11-1.52-3.91,8.3-6.58,13.78-9.1,19.34-13.11,28.99-8.6,46.03,18.05,62.51,15.14,9.37,31.32,17.05,47,25.54,42.06,22.76,65.63,71.35,53.03,117.65-8.06,29.61,5.45,54.64,9.36,81.74,2.62,18.18,5.7,36.46,6.08,54.74.41,19.79-4.63,38.59-18.18,54.4-12.63,14.74-16.73,32.55-15.71,51.62,2.87,53.52,5.74,107.05,8.95,160.55.28,4.73,2.22,9.89,4.85,13.88,28.64,43.25,57.44,86.4,86.47,129.38,24.46,36.22,56.85,64.96,93.03,88.13,15.87,10.16,37.82,10.99,57.12,15.57,6.12,1.45,12.63,1.31,20.79,2.07-7.86,15.37-19.59,13.56-29.94,11.25-63.46-14.22-125.48-31.95-177.32-74.27-11.99-9.79-25.55-17.64-41.06-28.2-2.29,20.54-3,38.75-6.61,56.38-4.79,23.37-11.56,46.36-18.2,69.3-1.12,3.85-5.9,6.64-8.99,9.92-1.35-.9-2.7-1.8-4.05-2.7,4.67-14.57,9.11-29.22,14.09-43.68,3.79-11.01,2.02-18.64-9-24.97-42.54-24.45-78.05-57.41-111.08-93.37-30.84-33.58-85.83-33.54-117.05-.57-12.7,13.41-10.25,29.65,6.85,36.05,114.58,42.89,186.33,130.73,244.63,232.57,10.22,17.84,18.41,36.88,26.87,55.66,2.29,5.08,2.15,11.24,3.13,16.91l-4.53,2c-3.47-5.55-7.8-10.74-10.28-16.7-26.26-63.09-64.12-118.94-109.25-169.56-42.33-47.47-90.49-87.97-152.69-107.91-12.41-3.98-22.32-10.13-24.06-24.63-1.9-15.81,2.98-29.12,15.81-38.27,22.89-16.33,47.79-26.54,76.87-21.19,3.44.63,7.1.09,13.02.09-3.25-5.35-4.98-8.62-7.1-11.62-20.07-28.39-31.51-59.76-35.62-94.4-9.01-75.93-10.28-152.16,4.11-226.99,7.99-41.55,27.57-80.9,42.36-121.08.98-2.66,5.64-3.96,8.58-5.89.7,3.8,1.99,7.61,1.89,11.39-.06,2.58-1.87,5.22-3.22,7.65-30.8,55.44-44.96,115.67-45.47,178.28-.47,57.87,2.4,115.91,6.87,173.64,3.02,39.06,30.25,67.74,52.38,97.59,32.97,44.48,75.9,78.49,121.41,109.35,2.19,1.49,4.93,2.18,7.35,3.21,15.47-27.81,10.16-68.09-14.05-84.9-42.04-29.19-85.23-56.81-128.78-83.72-19.6-12.11-29.72-34.71-22.51-64.37,9.87-40.62,21.89-80.74,31.21-121.48,17.08-74.64,30.55-149.89,28.94-226.93-.23-10.99-2.29-22.27-5.55-32.78-5.03-16.22-13.62-19.55-25.63-7.92-18.71,18.13-35.58,38.25-52.28,58.32-14.21,17.07-25.31,37.06-40.97,52.51-21.55,21.26-49.78,12.28-55.78-17.19-11.97-58.88-7.22-117.06,16.41-172.35,16.77-39.25,50.62-57.88,83.17-48.99,8.81,2.41,17.23,7.76,24.57,13.4,3.54,2.71,4.16,9.22,6.1,14.01-1.27.75-2.55,1.5-3.82,2.25Zm17.09,537.42c2.24-32.81,15.6-42.52,38.51-32.67,7.13,3.06,15.89,2.32,23.91,3.32.28-8.75,3.46-18.74.34-26.03-11.84-27.57-15.01-55.98-11.88-85.22,5.99-55.99,10.27-112.33,19.84-167.73,7.73-44.74,21.42-88.53,34.1-132.27,4.36-15.05,10.76-28.58-3.07-41.43-11.8-10.96-31.29-12.15-46.83-3.16-19.94,11.53-22.97,22.81-15.21,44.15,4.69,12.89,8.24,26.9,8.66,40.52,2.4,77.56-11.08,153.42-28.04,228.61-9.18,40.73-21.82,80.67-32.1,121.17-4.37,17.22-6.07,34.82,11.77,50.73Zm265.16,182.35c1.42-1.54,2.84-3.08,4.26-4.62-6.41-5.81-12.54-11.98-19.29-17.38-29.64-23.7-59.91-46.63-89.08-70.88-29.58-24.59-60.25-48.44-86.27-76.49-12.88-13.88-24.12-27.77-42.04-34.01-5.4-1.88-12.2.28-18.35.59.46,5.71-1.24,13.29,1.78,16.76,8.29,9.53,17.86,18.35,28.19,25.65,33.6,23.75,68.24,46.03,101.55,70.16,23.32,16.89,44.81,36.27,67.7,53.79,16.7,12.78,34.34,24.32,51.56,36.42Z"/>
  <path d="m417.73,1153.14c2.03-7.28,3.04-15.06,6.26-21.77,22.23-46.27,29.65-95.22,21.05-145.22-6.3-36.65-18.48-72.27-27.72-108.43-13.39-52.37-31.05-104.14-38.78-157.35-17.22-118.59,2.69-231.39,68.02-333.87,22.7-35.61,47.59-69.84,69.8-105.74,8.04-13,11.19-29.03,16.58-43.67-1.68-.77-3.37-1.54-5.05-2.31-1.88,1.75-4.56,3.14-5.52,5.3-33.74,76.23-98.73,108.62-175.17,124.48-36.54,7.58-71.42,17.86-98.87,45.21-20.43,20.36-31.64,44.96-39.18,72.6-4.85,17.78-11.9,37.07-23.83,50.45-46.32,51.97-70.96,114-90.89,179.06-4.28,13.97-13.3,26.58-20.92,39.34-1.25,2.09-6.58,1.73-10.02,2.51-.44-2.96-2.35-6.98-1.1-8.71,31-42.98,33.75-98.05,60.93-142.45,15.67-25.59,33.96-49.57,49.84-75.04,9.25-14.83,19.17-30.37,23.47-46.97,17.82-68.75,61.08-109.72,129.86-124.21,43.89-9.25,86.39-20.8,124.3-46.8,24.02-16.48,39.43-38.96,54.07-62.66,7.32-11.85,14.41-24.07,19.58-36.94,2.58-6.41,2.38-15.15.44-21.98-18-63.55,1.4-126.41,50.62-161.77,49.2-35.34,120.34-34.88,178.56,1.16,52.97,32.79,80.01,91.17,69.13,151.83-2.33,12.99-6.28,26.7-13.3,37.62-13.27,20.61-15.56,42.5-14.28,65.73.37,6.68.44,13.4.12,20.09-.45,9.63-4.59,14.43-15.39,15.75-7.59.93-16.44,5.73-21.35,11.63-12.46,14.96-22.37,32.03-34.52,47.28-14.44,18.14-29.74,21.52-47.99,7.62-22.97-17.5-44.92-36.79-64.96-57.56-18.75-19.44-17.14-44.73-12.62-69.7,4.74-26.19-16.81-51.23-43.01-49.4-4.47.31-12.47,6.45-12.23,9.33,4.46,52.92-28.8,89.65-53.99,130.13-28.73,46.18-62.1,89.5-80,142.22-28.08,82.69-30.83,167.13-15.42,251.34,10.58,57.84,29.14,114.44,47.12,170.64,18,56.27,27.52,112.89,14.25,170.84-5.36,23.41-18.06,45.15-27.7,67.53-.87,2.01-3.77,3.14-5.73,4.68l-4.49-1.8Zm123.77-957.71c54.11-.19,72,19.55,67.37,74.72-1.53,18.26-1.67,36.62,12.44,50.25,19.21,18.56,39.02,36.67,59.94,53.25,14.01,11.1,22.69,8.83,34-5.94,12.55-16.39,23.74-33.83,36.41-50.13,4.09-5.26,11.37-12.22,16.52-11.71,16.98,1.69,17.04-8.06,16.28-19.49-1.98-29.63,3.64-56.74,18.38-83.48,15.06-27.32,15.55-58.97,5.29-88.06-21.87-62.01-68.63-94.31-132.87-101.76-102.72-11.91-174.89,86.78-133.75,182.35Z"/>
  <path d="m247.76,541.4c-2.57,5.05-4.67,10.28-7.68,14.93-29.1,44.99-58.6,89.73-87.48,134.86-17.94,28.02-22.11,60.44-27.72,92.32-1.06,6.03-2.34,12.11-4.39,17.86-4.59,12.83-14.45,17.82-27.6,16.85-13.32-.98-17.83-9.58-18.42-21.6-.16-3.17-1.04-6.31-4.44-9.84-46.17,108.83-62.58,223.19-58.98,341.38-2.33.04-4.66.08-7,.11-1.29-5.11-3.6-10.2-3.71-15.33-2.04-92.64,4.88-184.08,36.23-272.34,4.84-13.63,6.62-28.37,11.75-41.86,3.22-8.45,8.73-17.12,15.6-22.81,9.73-8.06,19.35-3.25,22.07,9.25.59,2.71-.33,6.04.92,8.24,2.78,4.86,6.51,9.18,9.85,13.72,4.47-3.61,9.52-6.71,13.19-11,2.34-2.73,3.77-7.22,3.71-10.9-.87-57.55,28.69-103.32,58.07-148.87,20.55-31.87,42.3-63,64.58-93.7,4.23-5.82,14.25-12.01,20.03-10.76,5.08,1.1,10.36,12.01,11.46,19.21,17.2,113.06,52.61,219.92,106.16,321,22.35,42.19,37.71,87.05,42.6,134.93,4.82,47.25-8.26,90.24-30.02,131.78-17.53,33.47-37.22,66.88-47.75,102.73-21.61,73.58.73,137.33,55.67,190.03,2.01,1.93,4.93,3.3,6.13,5.6,1.75,3.33,2.32,7.27,3.39,10.95-3.91-.52-8.72.22-11.56-1.81-6.77-4.82-13.07-10.51-18.75-16.61-64.48-69.19-71.45-170.84-20.97-257.75,19.45-33.49,36.73-69.33,47.96-106.25,16.31-53.59-2.24-105.07-22.95-154.32-25.72-61.16-53.97-121.26-80.01-182.29-8.24-19.31-12.88-40.16-20.58-64.79-9.96,15.52-18.39,27.45-25.57,40.08-22.61,39.76-52.45,73.16-86.38,103.61-8.65,7.76-17.08,21.33-17.08,32.23,0,58.28-18.88,110.67-44.99,161.31-23.24,45.08-38.3,92.65-44.41,143.05-.74,6.06-3.21,11.91-4.88,17.85-1.96-.19-3.91-.38-5.87-.58,0-7.07-.76-14.24.12-21.21,6.5-51.34,20.61-100.25,44.57-146.46,24.84-47.9,44.34-97.49,42.54-153.15-.52-16.04,6.48-29.75,19.57-40.78,49-41.26,84.08-93.37,113.92-149.36,1.8-3.37,4.21-7.51,3.66-10.85-4.97-30.24-10.5-60.39-16.04-90.53-.23-1.27-2.21-2.21-8.52-8.16Z"/>
  <path d="m313.93,401.66c9.99.9,20.04,1.38,29.95,2.79,28.69,4.09,43.06,21.45,38.14,50.02-3.27,19-11.68,37.05-16.56,55.85-9.24,35.56-17.42,71.38-26.41,107.01-3.05,12.09-3.84,27.61-20.78,28.2-16.64.57-21.23-14.36-23.12-26.45-6.27-40.15-11.01-80.55-15.55-120.95-2.11-18.82-2.68-37.82-3.44-56.77-1.25-31.56,7-39.95,37.76-39.7Zm-.77,229.68c2.42.11,4.84.23,7.25.34,1.98-4.86,4.45-9.58,5.87-14.61,14.67-51.91,29.18-103.87,43.7-155.83,3.88-13.91,2.55-27.41-8.95-36.76-12.43-10.1-27.5-11.36-46.04-8.84,11.15,13.93,20.14,25.18,29.14,36.42-1.5,1.57-3.01,3.14-4.51,4.71-15.14-13.12-30.28-26.24-45.41-39.36l-5.6,2.71c3.92,70.9-1.49,142.87,24.55,211.21Z"/>
</svg>